G04 Layer: TopSilkLayer*
G04 EasyEDA v5.9.41, Tue, 05 Feb 2019 18:09:35 GMT*
G04 103b8e95693e4c8e91cf80fae80cb03d*
G04 Gerber Generator version 0.2*
G04 Scale: 100 percent, Rotated: No, Reflected: No *
G04 Dimensions in millimeters *
G04 leading zeros omitted , absolute positions ,3 integer and 3 decimal *
%FSLAX33Y33*%
%MOMM*%
G90*
G71D02*

%ADD10C,0.254000*%
%ADD19C,0.200000*%
%ADD20C,0.203200*%
%ADD21C,0.202999*%

%LPD*%
G54D10*
G01X7533Y18699D02*
G01X12533Y18699D01*
G01X12533Y13699D01*
G01X7533Y13699D01*
G01X7533Y18699D01*
G01X3022Y4275D02*
G01X522Y8605D01*
G01X4852Y11105D01*
G01X7352Y6775D01*
G01X3022Y4275D01*
G01X19036Y8478D02*
G01X16536Y4148D01*
G01X12206Y6648D01*
G01X14706Y10978D01*
G01X19036Y8478D01*
G54D19*
G01X3922Y14310D02*
G01X3372Y13357D01*
G01X1986Y14157D01*
G01X2536Y15110D01*
G01X4322Y15002D02*
G01X4872Y15955D01*
G01X4006Y16455D01*
G01X3486Y16755D01*
G01X2936Y15802D01*
G01X8147Y2902D02*
G01X9247Y2902D01*
G01X9247Y1302D01*
G01X8147Y1302D01*
G01X7347Y2902D02*
G01X6247Y2902D01*
G01X6247Y1902D01*
G01X6247Y1302D01*
G01X7347Y1302D01*
G01X17014Y12208D02*
G01X16464Y13161D01*
G01X17850Y13961D01*
G01X18400Y13008D01*
G01X17414Y11515D02*
G01X17964Y10563D01*
G01X18830Y11063D01*
G01X19350Y11363D01*
G01X18800Y12316D01*
G54D20*
G01X16510Y14421D02*
G01X13970Y14421D01*
G01X13970Y16961D01*
G01X16510Y16961D01*
G01X16510Y15056D01*
G54D21*
G01X16510Y14421D02*
G01X16510Y15056D01*
G54D20*
G01X12700Y832D02*
G01X10160Y832D01*
G01X10160Y3372D01*
G01X12700Y3372D01*
G01X12700Y1467D01*
G54D21*
G01X12700Y832D02*
G01X12700Y1467D01*
G54D10*
G75*
G01X11533Y16199D02*
G03X11533Y16199I-1500J0D01*
G01*
G75*
G01X7283Y18949D02*
G03X7283Y18949I-125J0D01*
G01*
G75*
G01X5437Y7690D02*
G03X5437Y7690I-1500J0D01*
G01*
G75*
G01X3118Y3825D02*
G03X3118Y3825I-125J0D01*
G01*
G75*
G01X17122Y7563D02*
G03X17122Y7563I-1500J0D01*
G01*
G75*
G01X19566Y8678D02*
G03X19566Y8678I-125J0D01*
G01*
M00*
M02*
