G04 Layer: BottomLayer*
G04 EasyEDA v5.9.41, Tue, 05 Feb 2019 18:09:35 GMT*
G04 103b8e95693e4c8e91cf80fae80cb03d*
G04 Gerber Generator version 0.2*
G04 Scale: 100 percent, Rotated: No, Reflected: No *
G04 Dimensions in millimeters *
G04 leading zeros omitted , absolute positions ,3 integer and 3 decimal *
%FSLAX33Y33*%
%MOMM*%
G90*
G71D02*

%ADD11C,0.299999*%
%ADD12C,0.619760*%
%ADD15C,1.574800*%
%ADD16R,1.574800X1.574800*%
%ADD17C,0.699999*%

%LPD*%
G36*
G01X10033Y152D02*
G01X9855Y154D01*
G01X9677Y158D01*
G01X9499Y166D01*
G01X9322Y178D01*
G01X9145Y192D01*
G01X8968Y209D01*
G01X8791Y230D01*
G01X8615Y254D01*
G01X8439Y281D01*
G01X8263Y312D01*
G01X8089Y345D01*
G01X7915Y382D01*
G01X7741Y421D01*
G01X7569Y464D01*
G01X7397Y510D01*
G01X7226Y559D01*
G01X7056Y611D01*
G01X6886Y666D01*
G01X6718Y724D01*
G01X6551Y786D01*
G01X6385Y850D01*
G01X6221Y917D01*
G01X6057Y987D01*
G01X5895Y1060D01*
G01X14171Y1060D01*
G01X14008Y987D01*
G01X13845Y917D01*
G01X13680Y850D01*
G01X13514Y786D01*
G01X13347Y724D01*
G01X13179Y666D01*
G01X13010Y611D01*
G01X12840Y559D01*
G01X12669Y510D01*
G01X12497Y464D01*
G01X12324Y421D01*
G01X12151Y382D01*
G01X11977Y345D01*
G01X11802Y312D01*
G01X11627Y281D01*
G01X11451Y254D01*
G01X11275Y230D01*
G01X11098Y209D01*
G01X10921Y192D01*
G01X10744Y178D01*
G01X10566Y166D01*
G01X10388Y158D01*
G01X10211Y154D01*
G01X10033Y152D01*
G37*

%LPD*%
G36*
G01X5895Y1060D02*
G01X5895Y1060D01*
G01X5739Y1134D01*
G01X5584Y1210D01*
G01X5430Y1289D01*
G01X5278Y1371D01*
G01X5127Y1456D01*
G01X4978Y1543D01*
G01X4830Y1632D01*
G01X4684Y1725D01*
G01X4540Y1819D01*
G01X4397Y1917D01*
G01X4256Y2017D01*
G01X4117Y2119D01*
G01X3979Y2223D01*
G01X3844Y2330D01*
G01X3710Y2440D01*
G01X3578Y2552D01*
G01X3448Y2666D01*
G01X3320Y2782D01*
G01X3195Y2900D01*
G01X3071Y3021D01*
G01X2949Y3144D01*
G01X10642Y3144D01*
G01X10642Y3144D01*
G01X10638Y3144D01*
G01X10633Y3144D01*
G01X10629Y3143D01*
G01X10624Y3143D01*
G01X10620Y3143D01*
G01X10615Y3142D01*
G01X10611Y3142D01*
G01X10607Y3141D01*
G01X10602Y3141D01*
G01X10598Y3140D01*
G01X10593Y3139D01*
G01X10589Y3138D01*
G01X10584Y3137D01*
G01X10580Y3136D01*
G01X10576Y3135D01*
G01X10571Y3134D01*
G01X10567Y3132D01*
G01X10563Y3131D01*
G01X10559Y3130D01*
G01X10554Y3128D01*
G01X10550Y3127D01*
G01X10546Y3125D01*
G01X10542Y3123D01*
G01X10538Y3121D01*
G01X10534Y3119D01*
G01X10530Y3118D01*
G01X10526Y3115D01*
G01X10522Y3113D01*
G01X10518Y3111D01*
G01X10514Y3109D01*
G01X10510Y3107D01*
G01X10506Y3104D01*
G01X10502Y3102D01*
G01X10499Y3099D01*
G01X10495Y3097D01*
G01X10491Y3094D01*
G01X10488Y3091D01*
G01X10484Y3089D01*
G01X10481Y3086D01*
G01X10477Y3083D01*
G01X10474Y3080D01*
G01X10470Y3077D01*
G01X10467Y3074D01*
G01X10464Y3071D01*
G01X10461Y3068D01*
G01X10458Y3064D01*
G01X10455Y3061D01*
G01X10452Y3058D01*
G01X10449Y3054D01*
G01X10446Y3051D01*
G01X10443Y3048D01*
G01X10440Y3044D01*
G01X10438Y3040D01*
G01X10435Y3037D01*
G01X10432Y3033D01*
G01X10430Y3029D01*
G01X10427Y3026D01*
G01X10425Y3022D01*
G01X10423Y3018D01*
G01X10420Y3014D01*
G01X10418Y3010D01*
G01X10416Y3006D01*
G01X10414Y3002D01*
G01X10412Y2998D01*
G01X10410Y2994D01*
G01X10409Y2990D01*
G01X10407Y2986D01*
G01X10405Y2982D01*
G01X10404Y2977D01*
G01X10402Y2973D01*
G01X10401Y2969D01*
G01X10399Y2965D01*
G01X10398Y2960D01*
G01X10397Y2956D01*
G01X10396Y2952D01*
G01X10395Y2947D01*
G01X10394Y2943D01*
G01X10393Y2938D01*
G01X10392Y2934D01*
G01X10391Y2930D01*
G01X10390Y2925D01*
G01X10390Y2921D01*
G01X10389Y2916D01*
G01X10389Y2912D01*
G01X10388Y2907D01*
G01X10388Y2903D01*
G01X10388Y2898D01*
G01X10388Y2894D01*
G01X10388Y2889D01*
G01X10388Y2889D01*
G01X10388Y1315D01*
G01X10388Y1315D01*
G01X10388Y1310D01*
G01X10388Y1306D01*
G01X10388Y1301D01*
G01X10388Y1297D01*
G01X10389Y1292D01*
G01X10389Y1288D01*
G01X10390Y1283D01*
G01X10390Y1279D01*
G01X10391Y1274D01*
G01X10392Y1270D01*
G01X10393Y1265D01*
G01X10394Y1261D01*
G01X10395Y1257D01*
G01X10396Y1252D01*
G01X10397Y1248D01*
G01X10398Y1244D01*
G01X10399Y1239D01*
G01X10401Y1235D01*
G01X10402Y1231D01*
G01X10404Y1227D01*
G01X10405Y1222D01*
G01X10407Y1218D01*
G01X10409Y1214D01*
G01X10410Y1210D01*
G01X10412Y1206D01*
G01X10414Y1202D01*
G01X10416Y1198D01*
G01X10418Y1194D01*
G01X10420Y1190D01*
G01X10423Y1186D01*
G01X10425Y1182D01*
G01X10427Y1178D01*
G01X10430Y1175D01*
G01X10432Y1171D01*
G01X10435Y1167D01*
G01X10438Y1163D01*
G01X10440Y1160D01*
G01X10443Y1156D01*
G01X10446Y1153D01*
G01X10449Y1149D01*
G01X10452Y1146D01*
G01X10455Y1143D01*
G01X10458Y1139D01*
G01X10461Y1136D01*
G01X10464Y1133D01*
G01X10467Y1130D01*
G01X10470Y1127D01*
G01X10474Y1124D01*
G01X10477Y1121D01*
G01X10481Y1118D01*
G01X10484Y1115D01*
G01X10488Y1112D01*
G01X10491Y1110D01*
G01X10495Y1107D01*
G01X10499Y1104D01*
G01X10502Y1102D01*
G01X10506Y1100D01*
G01X10510Y1097D01*
G01X10514Y1095D01*
G01X10518Y1093D01*
G01X10522Y1090D01*
G01X10526Y1088D01*
G01X10530Y1086D01*
G01X10534Y1084D01*
G01X10538Y1083D01*
G01X10542Y1081D01*
G01X10546Y1079D01*
G01X10550Y1077D01*
G01X10554Y1076D01*
G01X10559Y1074D01*
G01X10563Y1073D01*
G01X10567Y1071D01*
G01X10571Y1070D01*
G01X10576Y1069D01*
G01X10580Y1068D01*
G01X10584Y1067D01*
G01X10589Y1066D01*
G01X10593Y1065D01*
G01X10598Y1064D01*
G01X10602Y1063D01*
G01X10607Y1063D01*
G01X10611Y1062D01*
G01X10615Y1061D01*
G01X10620Y1061D01*
G01X10624Y1061D01*
G01X10629Y1060D01*
G01X10633Y1060D01*
G01X10638Y1060D01*
G01X10642Y1060D01*
G01X10642Y1060D01*
G01X5895Y1060D01*
G37*

%LPD*%
G36*
G01X12217Y1060D02*
G01X12217Y1060D01*
G01X12222Y1060D01*
G01X12226Y1060D01*
G01X12231Y1060D01*
G01X12235Y1061D01*
G01X12240Y1061D01*
G01X12244Y1061D01*
G01X12249Y1062D01*
G01X12253Y1063D01*
G01X12257Y1063D01*
G01X12262Y1064D01*
G01X12266Y1065D01*
G01X12271Y1066D01*
G01X12275Y1067D01*
G01X12279Y1068D01*
G01X12284Y1069D01*
G01X12288Y1070D01*
G01X12292Y1071D01*
G01X12297Y1073D01*
G01X12301Y1074D01*
G01X12305Y1076D01*
G01X12309Y1077D01*
G01X12314Y1079D01*
G01X12318Y1081D01*
G01X12322Y1083D01*
G01X12326Y1084D01*
G01X12330Y1086D01*
G01X12334Y1088D01*
G01X12338Y1090D01*
G01X12342Y1093D01*
G01X12346Y1095D01*
G01X12350Y1097D01*
G01X12353Y1100D01*
G01X12357Y1102D01*
G01X12361Y1104D01*
G01X12365Y1107D01*
G01X12368Y1110D01*
G01X12372Y1112D01*
G01X12375Y1115D01*
G01X12379Y1118D01*
G01X12382Y1121D01*
G01X12386Y1124D01*
G01X12389Y1127D01*
G01X12392Y1130D01*
G01X12396Y1133D01*
G01X12399Y1136D01*
G01X12402Y1139D01*
G01X12405Y1143D01*
G01X12408Y1146D01*
G01X12411Y1149D01*
G01X12414Y1153D01*
G01X12417Y1156D01*
G01X12419Y1160D01*
G01X12422Y1163D01*
G01X12425Y1167D01*
G01X12427Y1171D01*
G01X12430Y1175D01*
G01X12432Y1178D01*
G01X12435Y1182D01*
G01X12437Y1186D01*
G01X12439Y1190D01*
G01X12441Y1194D01*
G01X12443Y1198D01*
G01X12445Y1202D01*
G01X12447Y1206D01*
G01X12449Y1210D01*
G01X12451Y1214D01*
G01X12453Y1218D01*
G01X12454Y1222D01*
G01X12456Y1227D01*
G01X12457Y1231D01*
G01X12459Y1235D01*
G01X12460Y1239D01*
G01X12462Y1244D01*
G01X12463Y1248D01*
G01X12464Y1252D01*
G01X12465Y1257D01*
G01X12466Y1261D01*
G01X12467Y1265D01*
G01X12468Y1270D01*
G01X12468Y1274D01*
G01X12469Y1279D01*
G01X12470Y1283D01*
G01X12470Y1288D01*
G01X12471Y1292D01*
G01X12471Y1297D01*
G01X12471Y1301D01*
G01X12471Y1306D01*
G01X12472Y1310D01*
G01X12472Y1315D01*
G01X12472Y2889D01*
G01X12472Y2889D01*
G01X12472Y2894D01*
G01X12471Y2898D01*
G01X12471Y2903D01*
G01X12471Y2907D01*
G01X12471Y2912D01*
G01X12470Y2916D01*
G01X12470Y2920D01*
G01X12469Y2925D01*
G01X12469Y2929D01*
G01X12468Y2934D01*
G01X12467Y2938D01*
G01X12466Y2942D01*
G01X12465Y2947D01*
G01X12464Y2951D01*
G01X12463Y2955D01*
G01X12462Y2960D01*
G01X12461Y2964D01*
G01X12459Y2968D01*
G01X12458Y2972D01*
G01X12456Y2976D01*
G01X12455Y2981D01*
G01X12453Y2985D01*
G01X12451Y2989D01*
G01X12450Y2993D01*
G01X12448Y2997D01*
G01X12446Y3001D01*
G01X12444Y3005D01*
G01X12444Y3005D01*
G01X12444Y3144D01*
G01X17116Y3144D01*
G01X16995Y3021D01*
G01X16871Y2900D01*
G01X16745Y2782D01*
G01X16617Y2666D01*
G01X16488Y2552D01*
G01X16356Y2440D01*
G01X16222Y2330D01*
G01X16086Y2223D01*
G01X15949Y2119D01*
G01X15810Y2017D01*
G01X15669Y1917D01*
G01X15526Y1819D01*
G01X15381Y1725D01*
G01X15235Y1632D01*
G01X15088Y1543D01*
G01X14938Y1456D01*
G01X14788Y1371D01*
G01X14635Y1289D01*
G01X14482Y1210D01*
G01X14327Y1134D01*
G01X14171Y1060D01*
G01X12217Y1060D01*
G37*

%LPD*%
G36*
G01X2949Y3144D02*
G01X2949Y3144D01*
G01X2794Y3308D01*
G01X2794Y3697D01*
G01X10922Y3697D01*
G01X10922Y3144D01*
G01X2949Y3144D01*
G37*

%LPD*%
G36*
G01X12444Y3144D02*
G01X12444Y4725D01*
G01X12614Y5018D01*
G01X12614Y5018D01*
G01X12616Y5022D01*
G01X12618Y5026D01*
G01X12620Y5030D01*
G01X12622Y5034D01*
G01X12624Y5038D01*
G01X12626Y5042D01*
G01X12628Y5047D01*
G01X12629Y5051D01*
G01X12631Y5055D01*
G01X12632Y5059D01*
G01X12634Y5063D01*
G01X12635Y5068D01*
G01X12637Y5072D01*
G01X12638Y5076D01*
G01X12639Y5081D01*
G01X12640Y5085D01*
G01X12641Y5089D01*
G01X12642Y5094D01*
G01X12643Y5098D01*
G01X12644Y5103D01*
G01X12645Y5107D01*
G01X12645Y5111D01*
G01X12646Y5116D01*
G01X12646Y5120D01*
G01X12647Y5125D01*
G01X12647Y5129D01*
G01X12647Y5134D01*
G01X12647Y5138D01*
G01X12648Y5143D01*
G01X12648Y5147D01*
G01X12648Y5152D01*
G01X12647Y5156D01*
G01X12647Y5161D01*
G01X12647Y5165D01*
G01X12646Y5170D01*
G01X12646Y5174D01*
G01X12645Y5179D01*
G01X12645Y5183D01*
G01X12644Y5187D01*
G01X12643Y5192D01*
G01X12643Y5196D01*
G01X12642Y5201D01*
G01X12641Y5205D01*
G01X12639Y5209D01*
G01X12638Y5214D01*
G01X12637Y5218D01*
G01X12636Y5222D01*
G01X12634Y5227D01*
G01X12633Y5231D01*
G01X12631Y5235D01*
G01X12630Y5239D01*
G01X12628Y5243D01*
G01X12626Y5248D01*
G01X12624Y5252D01*
G01X12623Y5256D01*
G01X12621Y5260D01*
G01X12619Y5264D01*
G01X12616Y5268D01*
G01X12614Y5272D01*
G01X12612Y5276D01*
G01X12610Y5279D01*
G01X12607Y5283D01*
G01X12605Y5287D01*
G01X12602Y5291D01*
G01X12600Y5294D01*
G01X12597Y5298D01*
G01X12594Y5302D01*
G01X12592Y5305D01*
G01X12589Y5309D01*
G01X12586Y5312D01*
G01X12583Y5315D01*
G01X12580Y5319D01*
G01X12577Y5322D01*
G01X12574Y5325D01*
G01X12570Y5328D01*
G01X12567Y5331D01*
G01X12564Y5334D01*
G01X12560Y5337D01*
G01X12557Y5340D01*
G01X12554Y5343D01*
G01X12550Y5346D01*
G01X12547Y5349D01*
G01X12543Y5351D01*
G01X12539Y5354D01*
G01X12536Y5357D01*
G01X12532Y5359D01*
G01X12528Y5362D01*
G01X12524Y5364D01*
G01X12520Y5366D01*
G01X12520Y5366D01*
G01X12444Y5410D01*
G01X12444Y5912D01*
G01X12444Y5912D01*
G01X12444Y5919D01*
G01X12444Y5926D01*
G01X12443Y5933D01*
G01X12443Y5940D01*
G01X12442Y5947D01*
G01X12442Y5954D01*
G01X12441Y5961D01*
G01X12440Y5968D01*
G01X12439Y5975D01*
G01X12438Y5982D01*
G01X12436Y5989D01*
G01X12435Y5996D01*
G01X12433Y6003D01*
G01X12432Y6010D01*
G01X12430Y6017D01*
G01X12428Y6023D01*
G01X12426Y6030D01*
G01X12424Y6037D01*
G01X12422Y6044D01*
G01X12419Y6050D01*
G01X12417Y6057D01*
G01X12414Y6063D01*
G01X12412Y6070D01*
G01X12409Y6076D01*
G01X12406Y6083D01*
G01X12403Y6089D01*
G01X12400Y6096D01*
G01X12397Y6102D01*
G01X12393Y6108D01*
G01X12390Y6114D01*
G01X12386Y6120D01*
G01X12382Y6126D01*
G01X12379Y6132D01*
G01X12375Y6138D01*
G01X12371Y6144D01*
G01X12367Y6150D01*
G01X12362Y6155D01*
G01X12358Y6161D01*
G01X12354Y6166D01*
G01X12349Y6172D01*
G01X12345Y6177D01*
G01X12340Y6183D01*
G01X12335Y6188D01*
G01X12330Y6193D01*
G01X12325Y6198D01*
G01X12320Y6203D01*
G01X12315Y6208D01*
G01X12310Y6213D01*
G01X12305Y6217D01*
G01X12299Y6222D01*
G01X12294Y6226D01*
G01X12288Y6231D01*
G01X12283Y6235D01*
G01X12277Y6239D01*
G01X12271Y6243D01*
G01X12266Y6247D01*
G01X12260Y6251D01*
G01X12254Y6255D01*
G01X12248Y6259D01*
G01X12242Y6262D01*
G01X12235Y6266D01*
G01X12229Y6269D01*
G01X12223Y6272D01*
G01X12217Y6275D01*
G01X12210Y6279D01*
G01X12204Y6281D01*
G01X12197Y6284D01*
G01X12191Y6287D01*
G01X12184Y6290D01*
G01X12178Y6292D01*
G01X12171Y6294D01*
G01X12164Y6297D01*
G01X12158Y6299D01*
G01X12151Y6301D01*
G01X12144Y6303D01*
G01X12137Y6304D01*
G01X12130Y6306D01*
G01X12123Y6308D01*
G01X12117Y6309D01*
G01X12110Y6310D01*
G01X12103Y6311D01*
G01X12096Y6312D01*
G01X12089Y6313D01*
G01X12082Y6314D01*
G01X12075Y6315D01*
G01X12068Y6315D01*
G01X12061Y6316D01*
G01X12053Y6316D01*
G01X12046Y6316D01*
G01X12039Y6316D01*
G01X19050Y6316D01*
G01X19050Y5992D01*
G01X19050Y5992D01*
G01X18978Y5835D01*
G01X18903Y5679D01*
G01X18825Y5524D01*
G01X18745Y5371D01*
G01X18662Y5219D01*
G01X18576Y5069D01*
G01X18488Y4920D01*
G01X18397Y4773D01*
G01X18304Y4627D01*
G01X18208Y4483D01*
G01X18110Y4341D01*
G01X18009Y4200D01*
G01X17905Y4062D01*
G01X17800Y3925D01*
G01X17691Y3790D01*
G01X17581Y3656D01*
G01X17468Y3525D01*
G01X17353Y3396D01*
G01X17236Y3269D01*
G01X17116Y3144D01*
G01X12444Y3144D01*
G37*

%LPD*%
G36*
G01X2794Y3308D02*
G01X2669Y3445D01*
G01X2547Y3584D01*
G01X2427Y3725D01*
G01X2310Y3869D01*
G01X2196Y4015D01*
G01X2085Y4163D01*
G01X1976Y4313D01*
G01X1870Y4465D01*
G01X1767Y4619D01*
G01X1667Y4775D01*
G01X1570Y4933D01*
G01X1476Y5092D01*
G01X1385Y5253D01*
G01X2794Y5253D01*
G01X2794Y3308D01*
G37*

%LPD*%
G36*
G01X2794Y3697D02*
G01X2794Y5253D01*
G01X8384Y5253D01*
G01X8384Y4679D01*
G01X8384Y4679D01*
G01X8376Y4672D01*
G01X8369Y4665D01*
G01X8362Y4659D01*
G01X8355Y4651D01*
G01X8348Y4644D01*
G01X8342Y4637D01*
G01X8335Y4629D01*
G01X8329Y4622D01*
G01X8323Y4614D01*
G01X8316Y4606D01*
G01X8310Y4599D01*
G01X8305Y4591D01*
G01X8299Y4582D01*
G01X8293Y4574D01*
G01X8288Y4566D01*
G01X8283Y4558D01*
G01X8277Y4549D01*
G01X8272Y4541D01*
G01X8268Y4532D01*
G01X8263Y4523D01*
G01X8258Y4514D01*
G01X8254Y4505D01*
G01X8250Y4496D01*
G01X8246Y4487D01*
G01X8242Y4478D01*
G01X8238Y4469D01*
G01X8235Y4460D01*
G01X8231Y4451D01*
G01X8228Y4441D01*
G01X8225Y4432D01*
G01X8222Y4422D01*
G01X8219Y4413D01*
G01X8217Y4403D01*
G01X8214Y4394D01*
G01X8212Y4384D01*
G01X8210Y4374D01*
G01X8208Y4365D01*
G01X8206Y4355D01*
G01X8205Y4345D01*
G01X8203Y4335D01*
G01X8202Y4325D01*
G01X8201Y4316D01*
G01X8200Y4306D01*
G01X8199Y4296D01*
G01X8199Y4286D01*
G01X8199Y4276D01*
G01X8198Y4266D01*
G01X8198Y4256D01*
G01X8199Y4246D01*
G01X8199Y4236D01*
G01X8199Y4227D01*
G01X8200Y4217D01*
G01X8201Y4207D01*
G01X8202Y4197D01*
G01X8203Y4187D01*
G01X8205Y4177D01*
G01X8206Y4167D01*
G01X8208Y4158D01*
G01X8210Y4148D01*
G01X8212Y4138D01*
G01X8214Y4129D01*
G01X8216Y4119D01*
G01X8219Y4109D01*
G01X8222Y4100D01*
G01X8225Y4090D01*
G01X8228Y4081D01*
G01X8231Y4072D01*
G01X8234Y4062D01*
G01X8238Y4053D01*
G01X8242Y4044D01*
G01X8246Y4035D01*
G01X8250Y4026D01*
G01X8254Y4017D01*
G01X8258Y4008D01*
G01X8263Y3999D01*
G01X8267Y3990D01*
G01X8272Y3982D01*
G01X8277Y3973D01*
G01X8282Y3965D01*
G01X8288Y3956D01*
G01X8293Y3948D01*
G01X8299Y3940D01*
G01X8304Y3932D01*
G01X8310Y3924D01*
G01X8316Y3916D01*
G01X8322Y3908D01*
G01X8329Y3900D01*
G01X8335Y3893D01*
G01X8341Y3885D01*
G01X8348Y3878D01*
G01X8355Y3871D01*
G01X8362Y3864D01*
G01X8369Y3857D01*
G01X8376Y3850D01*
G01X8383Y3843D01*
G01X8391Y3837D01*
G01X8398Y3830D01*
G01X8406Y3824D01*
G01X8414Y3818D01*
G01X8421Y3811D01*
G01X8429Y3806D01*
G01X8437Y3800D01*
G01X8446Y3794D01*
G01X8454Y3789D01*
G01X8462Y3783D01*
G01X8471Y3778D01*
G01X8479Y3773D01*
G01X8488Y3768D01*
G01X8496Y3763D01*
G01X8505Y3759D01*
G01X8514Y3754D01*
G01X8523Y3750D01*
G01X8532Y3746D01*
G01X8541Y3742D01*
G01X8550Y3738D01*
G01X8559Y3734D01*
G01X8569Y3731D01*
G01X8578Y3728D01*
G01X8587Y3724D01*
G01X8597Y3721D01*
G01X8606Y3719D01*
G01X8616Y3716D01*
G01X8625Y3713D01*
G01X8635Y3711D01*
G01X8645Y3709D01*
G01X8654Y3707D01*
G01X8664Y3705D01*
G01X8674Y3704D01*
G01X8684Y3702D01*
G01X8694Y3701D01*
G01X8703Y3700D01*
G01X8713Y3699D01*
G01X8723Y3698D01*
G01X8733Y3697D01*
G01X8743Y3697D01*
G01X8753Y3697D01*
G01X8763Y3697D01*
G01X2794Y3697D01*
G37*

%LPD*%
G36*
G01X8763Y3697D02*
G01X8763Y3697D01*
G01X8773Y3697D01*
G01X8783Y3697D01*
G01X8793Y3697D01*
G01X8803Y3698D01*
G01X8813Y3699D01*
G01X8822Y3700D01*
G01X8832Y3701D01*
G01X8842Y3702D01*
G01X8852Y3704D01*
G01X8862Y3705D01*
G01X8872Y3707D01*
G01X8881Y3709D01*
G01X8891Y3711D01*
G01X8901Y3714D01*
G01X8910Y3716D01*
G01X8920Y3719D01*
G01X8930Y3722D01*
G01X8939Y3725D01*
G01X8949Y3728D01*
G01X8958Y3731D01*
G01X8967Y3735D01*
G01X8977Y3739D01*
G01X8986Y3742D01*
G01X8995Y3746D01*
G01X9004Y3751D01*
G01X9013Y3755D01*
G01X9022Y3759D01*
G01X9031Y3764D01*
G01X9039Y3769D01*
G01X9048Y3774D01*
G01X9056Y3779D01*
G01X9065Y3784D01*
G01X9073Y3790D01*
G01X9082Y3795D01*
G01X9090Y3801D01*
G01X9098Y3807D01*
G01X9106Y3813D01*
G01X9114Y3819D01*
G01X9121Y3825D01*
G01X9129Y3832D01*
G01X9137Y3838D01*
G01X9144Y3845D01*
G01X9151Y3852D01*
G01X9158Y3858D01*
G01X9165Y3866D01*
G01X9172Y3873D01*
G01X9179Y3880D01*
G01X9186Y3887D01*
G01X9192Y3895D01*
G01X9199Y3903D01*
G01X9205Y3910D01*
G01X9211Y3918D01*
G01X9217Y3926D01*
G01X9223Y3934D01*
G01X9229Y3942D01*
G01X9234Y3951D01*
G01X9240Y3959D01*
G01X9245Y3968D01*
G01X9250Y3976D01*
G01X9255Y3985D01*
G01X9260Y3993D01*
G01X9264Y4002D01*
G01X9269Y4011D01*
G01X9273Y4020D01*
G01X9277Y4029D01*
G01X9281Y4038D01*
G01X9285Y4048D01*
G01X9289Y4057D01*
G01X9292Y4066D01*
G01X9296Y4076D01*
G01X9299Y4085D01*
G01X9302Y4094D01*
G01X9305Y4104D01*
G01X10922Y5721D01*
G01X10922Y4925D01*
G01X10776Y4672D01*
G01X10776Y4672D01*
G01X10773Y4668D01*
G01X10771Y4664D01*
G01X10769Y4660D01*
G01X10767Y4656D01*
G01X10765Y4652D01*
G01X10763Y4648D01*
G01X10762Y4644D01*
G01X10760Y4639D01*
G01X10758Y4635D01*
G01X10757Y4631D01*
G01X10755Y4627D01*
G01X10754Y4623D01*
G01X10752Y4618D01*
G01X10751Y4614D01*
G01X10750Y4610D01*
G01X10749Y4605D01*
G01X10748Y4601D01*
G01X10747Y4597D01*
G01X10746Y4592D01*
G01X10745Y4588D01*
G01X10744Y4583D01*
G01X10744Y4579D01*
G01X10743Y4574D01*
G01X10743Y4570D01*
G01X10742Y4565D01*
G01X10742Y4561D01*
G01X10742Y4556D01*
G01X10742Y4552D01*
G01X10742Y4548D01*
G01X10742Y4543D01*
G01X10742Y4539D01*
G01X10742Y4534D01*
G01X10742Y4530D01*
G01X10742Y4525D01*
G01X10743Y4521D01*
G01X10743Y4516D01*
G01X10744Y4512D01*
G01X10744Y4507D01*
G01X10745Y4503D01*
G01X10746Y4498D01*
G01X10747Y4494D01*
G01X10748Y4490D01*
G01X10749Y4485D01*
G01X10750Y4481D01*
G01X10751Y4476D01*
G01X10752Y4472D01*
G01X10753Y4468D01*
G01X10755Y4464D01*
G01X10756Y4459D01*
G01X10758Y4455D01*
G01X10759Y4451D01*
G01X10761Y4447D01*
G01X10763Y4443D01*
G01X10765Y4439D01*
G01X10767Y4434D01*
G01X10769Y4430D01*
G01X10771Y4426D01*
G01X10773Y4422D01*
G01X10775Y4419D01*
G01X10777Y4415D01*
G01X10779Y4411D01*
G01X10782Y4407D01*
G01X10784Y4403D01*
G01X10787Y4400D01*
G01X10789Y4396D01*
G01X10792Y4392D01*
G01X10795Y4389D01*
G01X10798Y4385D01*
G01X10800Y4382D01*
G01X10803Y4378D01*
G01X10806Y4375D01*
G01X10809Y4372D01*
G01X10812Y4368D01*
G01X10816Y4365D01*
G01X10819Y4362D01*
G01X10822Y4359D01*
G01X10825Y4356D01*
G01X10829Y4353D01*
G01X10832Y4350D01*
G01X10836Y4347D01*
G01X10839Y4344D01*
G01X10843Y4341D01*
G01X10846Y4339D01*
G01X10850Y4336D01*
G01X10854Y4334D01*
G01X10857Y4331D01*
G01X10861Y4329D01*
G01X10865Y4326D01*
G01X10869Y4324D01*
G01X10869Y4324D01*
G01X10922Y4294D01*
G01X10922Y3697D01*
G01X8763Y3697D01*
G37*

%LPD*%
G36*
G01X10922Y3144D02*
G01X10922Y4294D01*
G01X11635Y3882D01*
G01X11635Y3144D01*
G01X10922Y3144D01*
G37*

%LPD*%
G36*
G01X11056Y5855D02*
G01X11517Y6316D01*
G01X12039Y6316D01*
G01X12039Y6316D01*
G01X12032Y6316D01*
G01X12025Y6316D01*
G01X12018Y6316D01*
G01X12011Y6315D01*
G01X12004Y6315D01*
G01X11997Y6314D01*
G01X11989Y6313D01*
G01X11982Y6312D01*
G01X11975Y6311D01*
G01X11968Y6310D01*
G01X11961Y6309D01*
G01X11954Y6307D01*
G01X11947Y6306D01*
G01X11940Y6304D01*
G01X11934Y6302D01*
G01X11927Y6300D01*
G01X11920Y6298D01*
G01X11913Y6296D01*
G01X11906Y6294D01*
G01X11900Y6291D01*
G01X11893Y6289D01*
G01X11886Y6286D01*
G01X11880Y6284D01*
G01X11873Y6281D01*
G01X11867Y6278D01*
G01X11860Y6275D01*
G01X11854Y6271D01*
G01X11847Y6268D01*
G01X11841Y6265D01*
G01X11835Y6261D01*
G01X11829Y6257D01*
G01X11823Y6254D01*
G01X11817Y6250D01*
G01X11811Y6246D01*
G01X11805Y6242D01*
G01X11799Y6237D01*
G01X11794Y6233D01*
G01X11788Y6229D01*
G01X11782Y6224D01*
G01X11777Y6220D01*
G01X11772Y6215D01*
G01X11766Y6210D01*
G01X11761Y6205D01*
G01X11756Y6200D01*
G01X11751Y6195D01*
G01X11746Y6190D01*
G01X11741Y6185D01*
G01X11736Y6180D01*
G01X11732Y6174D01*
G01X11727Y6169D01*
G01X11722Y6163D01*
G01X11718Y6158D01*
G01X11714Y6152D01*
G01X11710Y6146D01*
G01X11706Y6140D01*
G01X11702Y6134D01*
G01X11698Y6128D01*
G01X11694Y6122D01*
G01X11690Y6116D01*
G01X11687Y6110D01*
G01X11683Y6104D01*
G01X11680Y6097D01*
G01X11677Y6091D01*
G01X11674Y6085D01*
G01X11671Y6078D01*
G01X11668Y6072D01*
G01X11665Y6065D01*
G01X11662Y6058D01*
G01X11660Y6052D01*
G01X11657Y6045D01*
G01X11655Y6038D01*
G01X11653Y6031D01*
G01X11651Y6025D01*
G01X11649Y6018D01*
G01X11647Y6011D01*
G01X11645Y6004D01*
G01X11644Y5997D01*
G01X11642Y5990D01*
G01X11641Y5983D01*
G01X11640Y5976D01*
G01X11639Y5969D01*
G01X11638Y5962D01*
G01X11637Y5955D01*
G01X11636Y5948D01*
G01X11636Y5940D01*
G01X11635Y5933D01*
G01X11635Y5926D01*
G01X11635Y5919D01*
G01X11635Y5912D01*
G01X11635Y5855D01*
G01X11056Y5855D01*
G37*

%LPD*%
G36*
G01X11517Y6316D02*
G01X11945Y6745D01*
G01X19050Y6745D01*
G01X19050Y6316D01*
G01X11517Y6316D01*
G37*

%LPD*%
G36*
G01X19050Y5992D02*
G01X19050Y5992D01*
G01X19050Y14086D01*
G01X19121Y13923D01*
G01X19190Y13758D01*
G01X19255Y13592D01*
G01X19318Y13425D01*
G01X19377Y13256D01*
G01X19434Y13087D01*
G01X19487Y12917D01*
G01X19538Y12745D01*
G01X19585Y12573D01*
G01X19629Y12400D01*
G01X19670Y12226D01*
G01X19708Y12052D01*
G01X19742Y11877D01*
G01X19774Y11701D01*
G01X19802Y11525D01*
G01X19827Y11348D01*
G01X19849Y11171D01*
G01X19868Y10993D01*
G01X19884Y10815D01*
G01X19896Y10637D01*
G01X19905Y10459D01*
G01X19911Y10281D01*
G01X19913Y10102D01*
G01X19913Y10102D01*
G01X19913Y10102D01*
G01X19913Y9926D01*
G01X19910Y9749D01*
G01X19903Y9573D01*
G01X19893Y9397D01*
G01X19880Y9221D01*
G01X19864Y9046D01*
G01X19845Y8870D01*
G01X19823Y8695D01*
G01X19797Y8521D01*
G01X19769Y8347D01*
G01X19737Y8174D01*
G01X19702Y8001D01*
G01X19665Y7828D01*
G01X19624Y7657D01*
G01X19580Y7486D01*
G01X19533Y7316D01*
G01X19483Y7147D01*
G01X19430Y6979D01*
G01X19374Y6812D01*
G01X19315Y6646D01*
G01X19253Y6481D01*
G01X19188Y6317D01*
G01X19120Y6154D01*
G01X19050Y5992D01*
G37*

%LPD*%
G36*
G01X1385Y5253D02*
G01X1301Y5408D01*
G01X1220Y5565D01*
G01X1142Y5723D01*
G01X1066Y5882D01*
G01X994Y6042D01*
G01X924Y6204D01*
G01X857Y6367D01*
G01X793Y6531D01*
G01X732Y6697D01*
G01X674Y6863D01*
G01X619Y7030D01*
G01X567Y7199D01*
G01X518Y7368D01*
G01X472Y7538D01*
G01X429Y7709D01*
G01X389Y7880D01*
G01X352Y8052D01*
G01X319Y8225D01*
G01X288Y8399D01*
G01X260Y8573D01*
G01X236Y8747D01*
G01X215Y8922D01*
G01X196Y9097D01*
G01X181Y9273D01*
G01X169Y9449D01*
G01X160Y9625D01*
G01X155Y9801D01*
G01X152Y9977D01*
G01X152Y9977D01*
G01X152Y9977D01*
G01X153Y10175D01*
G01X157Y10374D01*
G01X166Y10572D01*
G01X178Y10770D01*
G01X2000Y10770D01*
G01X2000Y10770D01*
G01X1995Y10765D01*
G01X1990Y10760D01*
G01X1985Y10754D01*
G01X1980Y10749D01*
G01X1975Y10743D01*
G01X1971Y10738D01*
G01X1966Y10732D01*
G01X1962Y10726D01*
G01X1958Y10721D01*
G01X1953Y10715D01*
G01X1949Y10709D01*
G01X1945Y10703D01*
G01X1942Y10697D01*
G01X1938Y10690D01*
G01X1934Y10684D01*
G01X1931Y10678D01*
G01X1927Y10671D01*
G01X1924Y10665D01*
G01X1921Y10659D01*
G01X1918Y10652D01*
G01X1915Y10645D01*
G01X1912Y10639D01*
G01X1909Y10632D01*
G01X1907Y10625D01*
G01X1904Y10618D01*
G01X1902Y10612D01*
G01X1900Y10605D01*
G01X1898Y10598D01*
G01X1896Y10591D01*
G01X1894Y10584D01*
G01X1892Y10577D01*
G01X1890Y10570D01*
G01X1889Y10563D01*
G01X1888Y10556D01*
G01X1886Y10549D01*
G01X1885Y10541D01*
G01X1884Y10534D01*
G01X1884Y10527D01*
G01X1883Y10520D01*
G01X1882Y10513D01*
G01X1882Y10506D01*
G01X1881Y10498D01*
G01X1881Y10491D01*
G01X1881Y10484D01*
G01X1881Y6039D01*
G01X1881Y6039D01*
G01X1881Y6032D01*
G01X1881Y6024D01*
G01X1882Y6017D01*
G01X1882Y6010D01*
G01X1883Y6003D01*
G01X1884Y5996D01*
G01X1884Y5989D01*
G01X1885Y5981D01*
G01X1886Y5974D01*
G01X1888Y5967D01*
G01X1889Y5960D01*
G01X1890Y5953D01*
G01X1892Y5946D01*
G01X1894Y5939D01*
G01X1896Y5932D01*
G01X1898Y5925D01*
G01X1900Y5918D01*
G01X1902Y5911D01*
G01X1904Y5904D01*
G01X1907Y5898D01*
G01X1909Y5891D01*
G01X1912Y5884D01*
G01X1915Y5877D01*
G01X1918Y5871D01*
G01X1921Y5864D01*
G01X1924Y5858D01*
G01X1927Y5851D01*
G01X1931Y5845D01*
G01X1934Y5839D01*
G01X1938Y5833D01*
G01X1942Y5826D01*
G01X1945Y5820D01*
G01X1949Y5814D01*
G01X1953Y5808D01*
G01X1958Y5802D01*
G01X1962Y5797D01*
G01X1966Y5791D01*
G01X1971Y5785D01*
G01X1975Y5780D01*
G01X1980Y5774D01*
G01X1985Y5769D01*
G01X1990Y5763D01*
G01X1995Y5758D01*
G01X2000Y5753D01*
G01X2381Y5372D01*
G01X2386Y5367D01*
G01X2391Y5362D01*
G01X2396Y5357D01*
G01X2402Y5352D01*
G01X2407Y5348D01*
G01X2413Y5343D01*
G01X2419Y5338D01*
G01X2424Y5334D01*
G01X2430Y5330D01*
G01X2436Y5326D01*
G01X2442Y5322D01*
G01X2448Y5318D01*
G01X2454Y5314D01*
G01X2460Y5310D01*
G01X2467Y5306D01*
G01X2473Y5303D01*
G01X2479Y5299D01*
G01X2486Y5296D01*
G01X2492Y5293D01*
G01X2499Y5290D01*
G01X2505Y5287D01*
G01X2512Y5284D01*
G01X2519Y5282D01*
G01X2525Y5279D01*
G01X2532Y5276D01*
G01X2539Y5274D01*
G01X2546Y5272D01*
G01X2553Y5270D01*
G01X2560Y5268D01*
G01X2567Y5266D01*
G01X2574Y5264D01*
G01X2581Y5263D01*
G01X2588Y5261D01*
G01X2595Y5260D01*
G01X2602Y5259D01*
G01X2609Y5258D01*
G01X2616Y5257D01*
G01X2624Y5256D01*
G01X2631Y5255D01*
G01X2638Y5254D01*
G01X2645Y5254D01*
G01X2652Y5254D01*
G01X2660Y5253D01*
G01X2667Y5253D01*
G01X1385Y5253D01*
G37*

%LPD*%
G36*
G01X8066Y5253D02*
G01X8073Y5253D01*
G01X8081Y5254D01*
G01X8088Y5254D01*
G01X8095Y5254D01*
G01X8102Y5255D01*
G01X8109Y5256D01*
G01X8117Y5257D01*
G01X8124Y5258D01*
G01X8131Y5259D01*
G01X8138Y5260D01*
G01X8145Y5261D01*
G01X8152Y5263D01*
G01X8159Y5264D01*
G01X8166Y5266D01*
G01X8173Y5268D01*
G01X8180Y5270D01*
G01X8187Y5272D01*
G01X8194Y5274D01*
G01X8201Y5276D01*
G01X8207Y5279D01*
G01X8214Y5282D01*
G01X8221Y5284D01*
G01X8228Y5287D01*
G01X8234Y5290D01*
G01X8241Y5293D01*
G01X8247Y5296D01*
G01X8254Y5299D01*
G01X8260Y5303D01*
G01X8266Y5306D01*
G01X8273Y5310D01*
G01X8279Y5314D01*
G01X8285Y5318D01*
G01X8291Y5322D01*
G01X8297Y5326D01*
G01X8303Y5330D01*
G01X8309Y5334D01*
G01X8314Y5338D01*
G01X8320Y5343D01*
G01X8325Y5348D01*
G01X8331Y5352D01*
G01X8336Y5357D01*
G01X8342Y5362D01*
G01X8347Y5367D01*
G01X8352Y5372D01*
G01X8384Y5403D01*
G01X8384Y5253D01*
G01X8066Y5253D01*
G37*

%LPD*%
G36*
G01X10922Y4925D02*
G01X10922Y5721D01*
G01X11056Y5855D01*
G01X11606Y5855D01*
G01X11606Y5855D01*
G01X11601Y5855D01*
G01X11597Y5855D01*
G01X11592Y5855D01*
G01X11588Y5854D01*
G01X11583Y5854D01*
G01X11579Y5854D01*
G01X11575Y5853D01*
G01X11570Y5852D01*
G01X11566Y5852D01*
G01X11561Y5851D01*
G01X11557Y5850D01*
G01X11553Y5849D01*
G01X11548Y5848D01*
G01X11544Y5847D01*
G01X11540Y5846D01*
G01X11535Y5845D01*
G01X11531Y5844D01*
G01X11527Y5842D01*
G01X11523Y5841D01*
G01X11519Y5840D01*
G01X11514Y5838D01*
G01X11510Y5836D01*
G01X11506Y5835D01*
G01X11502Y5833D01*
G01X11498Y5831D01*
G01X11494Y5829D01*
G01X11490Y5827D01*
G01X11486Y5825D01*
G01X11482Y5823D01*
G01X11478Y5821D01*
G01X11475Y5819D01*
G01X11471Y5816D01*
G01X11467Y5814D01*
G01X11463Y5811D01*
G01X11460Y5809D01*
G01X11456Y5806D01*
G01X11452Y5804D01*
G01X11449Y5801D01*
G01X11445Y5798D01*
G01X11442Y5795D01*
G01X11439Y5792D01*
G01X11435Y5790D01*
G01X11432Y5787D01*
G01X11429Y5783D01*
G01X11426Y5780D01*
G01X11423Y5777D01*
G01X11419Y5774D01*
G01X11416Y5771D01*
G01X11414Y5767D01*
G01X11411Y5764D01*
G01X11408Y5761D01*
G01X11405Y5757D01*
G01X11402Y5754D01*
G01X11400Y5750D01*
G01X11397Y5746D01*
G01X11395Y5743D01*
G01X11392Y5739D01*
G01X11390Y5735D01*
G01X11387Y5731D01*
G01X11385Y5728D01*
G01X10922Y4925D01*
G37*

%LPD*%
G36*
G01X11635Y5853D02*
G01X11630Y5854D01*
G01X11625Y5854D01*
G01X11620Y5854D01*
G01X11615Y5855D01*
G01X11610Y5855D01*
G01X11606Y5855D01*
G01X11635Y5855D01*
G01X11635Y5853D01*
G37*

%LPD*%
G36*
G01X11945Y6745D02*
G01X12794Y7593D01*
G01X14891Y7593D01*
G01X15183Y7301D01*
G01X15184Y7291D01*
G01X15184Y7281D01*
G01X15185Y7272D01*
G01X15185Y7262D01*
G01X15186Y7252D01*
G01X15187Y7242D01*
G01X15189Y7232D01*
G01X15190Y7223D01*
G01X15192Y7213D01*
G01X15193Y7203D01*
G01X15195Y7193D01*
G01X15197Y7184D01*
G01X15200Y7174D01*
G01X15202Y7165D01*
G01X15205Y7155D01*
G01X15208Y7146D01*
G01X15210Y7136D01*
G01X15214Y7127D01*
G01X15217Y7117D01*
G01X15220Y7108D01*
G01X15224Y7099D01*
G01X15228Y7090D01*
G01X15232Y7081D01*
G01X15236Y7072D01*
G01X15240Y7063D01*
G01X15244Y7054D01*
G01X15249Y7045D01*
G01X15253Y7037D01*
G01X15258Y7028D01*
G01X15263Y7019D01*
G01X15268Y7011D01*
G01X15274Y7003D01*
G01X15279Y6994D01*
G01X15285Y6986D01*
G01X15290Y6978D01*
G01X15296Y6970D01*
G01X15302Y6962D01*
G01X15308Y6955D01*
G01X15315Y6947D01*
G01X15321Y6940D01*
G01X15328Y6932D01*
G01X15334Y6925D01*
G01X15341Y6918D01*
G01X15348Y6911D01*
G01X15355Y6904D01*
G01X15362Y6897D01*
G01X15369Y6890D01*
G01X15377Y6884D01*
G01X15384Y6877D01*
G01X15392Y6871D01*
G01X15400Y6865D01*
G01X15407Y6859D01*
G01X15415Y6853D01*
G01X15423Y6847D01*
G01X15431Y6841D01*
G01X15440Y6836D01*
G01X15448Y6831D01*
G01X15456Y6826D01*
G01X15465Y6821D01*
G01X15474Y6816D01*
G01X15482Y6811D01*
G01X15491Y6806D01*
G01X15500Y6802D01*
G01X15509Y6798D01*
G01X15518Y6794D01*
G01X15527Y6790D01*
G01X15536Y6786D01*
G01X15545Y6782D01*
G01X15554Y6779D01*
G01X15564Y6775D01*
G01X15573Y6772D01*
G01X15582Y6769D01*
G01X15592Y6767D01*
G01X15601Y6764D01*
G01X15611Y6761D01*
G01X15620Y6759D01*
G01X15630Y6757D01*
G01X15640Y6755D01*
G01X15650Y6753D01*
G01X15659Y6752D01*
G01X15669Y6750D01*
G01X15679Y6749D01*
G01X15689Y6748D01*
G01X15698Y6747D01*
G01X15708Y6746D01*
G01X15718Y6745D01*
G01X15728Y6745D01*
G01X15738Y6745D01*
G01X15748Y6745D01*
G01X11945Y6745D01*
G37*

%LPD*%
G36*
G01X15748Y6745D02*
G01X15758Y6745D01*
G01X15767Y6745D01*
G01X15777Y6745D01*
G01X15787Y6746D01*
G01X15797Y6747D01*
G01X15807Y6748D01*
G01X15817Y6749D01*
G01X15826Y6750D01*
G01X15836Y6752D01*
G01X15846Y6753D01*
G01X15856Y6755D01*
G01X15865Y6757D01*
G01X15875Y6759D01*
G01X15884Y6761D01*
G01X15894Y6764D01*
G01X15903Y6766D01*
G01X15913Y6769D01*
G01X15922Y6772D01*
G01X15932Y6775D01*
G01X15941Y6779D01*
G01X15950Y6782D01*
G01X15959Y6786D01*
G01X15969Y6790D01*
G01X15978Y6793D01*
G01X15987Y6798D01*
G01X15995Y6802D01*
G01X16004Y6806D01*
G01X16013Y6811D01*
G01X16022Y6815D01*
G01X16030Y6820D01*
G01X16039Y6825D01*
G01X16047Y6831D01*
G01X16055Y6836D01*
G01X16064Y6841D01*
G01X16072Y6847D01*
G01X16080Y6853D01*
G01X16088Y6858D01*
G01X16096Y6864D01*
G01X16103Y6871D01*
G01X16111Y6877D01*
G01X16118Y6883D01*
G01X16126Y6890D01*
G01X16133Y6897D01*
G01X16140Y6903D01*
G01X16147Y6910D01*
G01X16154Y6917D01*
G01X16161Y6924D01*
G01X16168Y6932D01*
G01X16174Y6939D01*
G01X16180Y6947D01*
G01X16187Y6954D01*
G01X16193Y6962D01*
G01X16199Y6970D01*
G01X16205Y6978D01*
G01X16210Y6986D01*
G01X16216Y6994D01*
G01X16221Y7002D01*
G01X16227Y7010D01*
G01X16232Y7019D01*
G01X16237Y7027D01*
G01X16242Y7036D01*
G01X16246Y7045D01*
G01X16251Y7053D01*
G01X16255Y7062D01*
G01X16260Y7071D01*
G01X16264Y7080D01*
G01X16268Y7089D01*
G01X16271Y7098D01*
G01X16275Y7107D01*
G01X16278Y7117D01*
G01X16282Y7126D01*
G01X16285Y7135D01*
G01X16288Y7145D01*
G01X16290Y7154D01*
G01X16293Y7164D01*
G01X16296Y7173D01*
G01X16298Y7183D01*
G01X16300Y7192D01*
G01X16302Y7202D01*
G01X16304Y7212D01*
G01X16305Y7222D01*
G01X16307Y7231D01*
G01X16308Y7241D01*
G01X16309Y7251D01*
G01X16310Y7261D01*
G01X16311Y7271D01*
G01X16311Y7280D01*
G01X16312Y7290D01*
G01X16312Y7300D01*
G01X16312Y7310D01*
G01X16312Y7320D01*
G01X16312Y7330D01*
G01X16311Y7340D01*
G01X16311Y7349D01*
G01X16310Y7359D01*
G01X16309Y7369D01*
G01X16308Y7379D01*
G01X16306Y7389D01*
G01X16305Y7398D01*
G01X16303Y7408D01*
G01X16302Y7418D01*
G01X16300Y7427D01*
G01X16297Y7437D01*
G01X16295Y7447D01*
G01X16293Y7456D01*
G01X16290Y7466D01*
G01X16287Y7475D01*
G01X16284Y7485D01*
G01X16281Y7494D01*
G01X16278Y7503D01*
G01X16274Y7512D01*
G01X16271Y7522D01*
G01X16267Y7531D01*
G01X16263Y7540D01*
G01X16259Y7549D01*
G01X16254Y7558D01*
G01X16250Y7566D01*
G01X16245Y7575D01*
G01X16241Y7584D01*
G01X16236Y7592D01*
G01X16231Y7601D01*
G01X16226Y7609D01*
G01X16220Y7618D01*
G01X16215Y7626D01*
G01X16209Y7634D01*
G01X16203Y7642D01*
G01X16198Y7650D01*
G01X16192Y7658D01*
G01X16185Y7665D01*
G01X16179Y7673D01*
G01X16173Y7680D01*
G01X16166Y7688D01*
G01X16159Y7695D01*
G01X16153Y7702D01*
G01X16146Y7709D01*
G01X16139Y7716D01*
G01X16131Y7723D01*
G01X16124Y7729D01*
G01X16117Y7736D01*
G01X16109Y7742D01*
G01X16102Y7749D01*
G01X16094Y7755D01*
G01X16086Y7761D01*
G01X16078Y7767D01*
G01X16070Y7772D01*
G01X16062Y7778D01*
G01X16054Y7783D01*
G01X16045Y7788D01*
G01X16037Y7794D01*
G01X16028Y7799D01*
G01X16020Y7803D01*
G01X16011Y7808D01*
G01X16002Y7813D01*
G01X15993Y7817D01*
G01X15985Y7821D01*
G01X15976Y7825D01*
G01X15967Y7829D01*
G01X15957Y7833D01*
G01X15948Y7836D01*
G01X15939Y7840D01*
G01X15930Y7843D01*
G01X15920Y7846D01*
G01X15911Y7849D01*
G01X15901Y7852D01*
G01X15892Y7855D01*
G01X15882Y7857D01*
G01X15873Y7859D01*
G01X15863Y7861D01*
G01X15853Y7863D01*
G01X15844Y7865D01*
G01X15834Y7867D01*
G01X15824Y7868D01*
G01X15814Y7869D01*
G01X15805Y7870D01*
G01X15795Y7871D01*
G01X15785Y7872D01*
G01X15775Y7873D01*
G01X15765Y7873D01*
G01X15755Y7873D01*
G01X15145Y8484D01*
G01X15140Y8489D01*
G01X15134Y8494D01*
G01X15129Y8499D01*
G01X15124Y8504D01*
G01X15118Y8508D01*
G01X15113Y8513D01*
G01X15107Y8517D01*
G01X15101Y8522D01*
G01X15095Y8526D01*
G01X15089Y8530D01*
G01X15083Y8534D01*
G01X15077Y8538D01*
G01X15071Y8542D01*
G01X15065Y8546D01*
G01X15059Y8549D01*
G01X15053Y8553D01*
G01X15046Y8556D01*
G01X15040Y8560D01*
G01X15033Y8563D01*
G01X15027Y8566D01*
G01X15020Y8569D01*
G01X15014Y8572D01*
G01X15007Y8574D01*
G01X15000Y8577D01*
G01X14993Y8579D01*
G01X14986Y8582D01*
G01X14980Y8584D01*
G01X14973Y8586D01*
G01X14966Y8588D01*
G01X14959Y8590D01*
G01X14952Y8592D01*
G01X14945Y8593D01*
G01X14938Y8595D01*
G01X14931Y8596D01*
G01X14923Y8597D01*
G01X14916Y8598D01*
G01X14909Y8599D01*
G01X14902Y8600D01*
G01X14895Y8601D01*
G01X14888Y8601D01*
G01X14880Y8602D01*
G01X14873Y8602D01*
G01X14866Y8602D01*
G01X14859Y8602D01*
G01X19050Y8602D01*
G01X19050Y6745D01*
G01X15748Y6745D01*
G37*

%LPD*%
G36*
G01X10922Y10072D02*
G01X10922Y10133D01*
G01X19050Y10133D01*
G01X19050Y10072D01*
G01X10922Y10072D01*
G37*

%LPD*%
G36*
G01X10922Y8802D02*
G01X10922Y8863D01*
G01X19050Y8863D01*
G01X19050Y8802D01*
G01X10922Y8802D01*
G37*

%LPD*%
G36*
G01X10922Y11342D02*
G01X10922Y11403D01*
G01X19050Y11403D01*
G01X19050Y11342D01*
G01X10922Y11342D01*
G37*

%LPD*%
G36*
G01X10922Y12612D02*
G01X10922Y14726D01*
G01X18735Y14726D01*
G01X18735Y14726D01*
G01X18818Y14568D01*
G01X18898Y14409D01*
G01X18975Y14248D01*
G01X19050Y14086D01*
G01X19050Y12612D01*
G01X10922Y12612D01*
G37*

%LPD*%
G36*
G01X14056Y8863D02*
G01X14067Y8864D01*
G01X14077Y8864D01*
G01X14088Y8864D01*
G01X14098Y8865D01*
G01X14109Y8866D01*
G01X14119Y8867D01*
G01X14130Y8868D01*
G01X14140Y8869D01*
G01X14151Y8871D01*
G01X14161Y8873D01*
G01X14171Y8875D01*
G01X14182Y8877D01*
G01X14192Y8879D01*
G01X14202Y8881D01*
G01X14213Y8884D01*
G01X14223Y8887D01*
G01X14233Y8890D01*
G01X14243Y8893D01*
G01X14253Y8896D01*
G01X14263Y8900D01*
G01X14273Y8904D01*
G01X14283Y8907D01*
G01X14292Y8911D01*
G01X14302Y8916D01*
G01X14312Y8920D01*
G01X14321Y8925D01*
G01X14331Y8929D01*
G01X14340Y8934D01*
G01X14349Y8939D01*
G01X14358Y8944D01*
G01X14367Y8950D01*
G01X14376Y8955D01*
G01X14385Y8961D01*
G01X14394Y8967D01*
G01X14403Y8973D01*
G01X14411Y8979D01*
G01X14420Y8985D01*
G01X14428Y8992D01*
G01X14437Y8998D01*
G01X14445Y9005D01*
G01X14453Y9012D01*
G01X14461Y9019D01*
G01X14468Y9026D01*
G01X14476Y9033D01*
G01X14484Y9040D01*
G01X14491Y9048D01*
G01X14498Y9056D01*
G01X14505Y9063D01*
G01X14512Y9071D01*
G01X14519Y9079D01*
G01X14526Y9087D01*
G01X14532Y9096D01*
G01X14539Y9104D01*
G01X14545Y9113D01*
G01X14551Y9121D01*
G01X14557Y9130D01*
G01X14563Y9139D01*
G01X14569Y9148D01*
G01X14574Y9157D01*
G01X14580Y9166D01*
G01X14585Y9175D01*
G01X14590Y9184D01*
G01X14595Y9193D01*
G01X14599Y9203D01*
G01X14604Y9212D01*
G01X14608Y9222D01*
G01X14613Y9232D01*
G01X14617Y9241D01*
G01X14620Y9251D01*
G01X14624Y9261D01*
G01X14628Y9271D01*
G01X14631Y9281D01*
G01X14634Y9291D01*
G01X14637Y9301D01*
G01X14640Y9311D01*
G01X14643Y9322D01*
G01X14645Y9332D01*
G01X14647Y9342D01*
G01X14650Y9353D01*
G01X14651Y9363D01*
G01X14653Y9373D01*
G01X14655Y9384D01*
G01X14656Y9394D01*
G01X14657Y9405D01*
G01X14658Y9415D01*
G01X14659Y9426D01*
G01X14660Y9436D01*
G01X14660Y9447D01*
G01X14661Y9457D01*
G01X14661Y9468D01*
G01X14661Y9478D01*
G01X14660Y9489D01*
G01X14660Y9500D01*
G01X14659Y9510D01*
G01X14658Y9521D01*
G01X14657Y9531D01*
G01X14656Y9542D01*
G01X14655Y9552D01*
G01X14653Y9562D01*
G01X14651Y9573D01*
G01X14650Y9583D01*
G01X14647Y9594D01*
G01X14645Y9604D01*
G01X14643Y9614D01*
G01X14640Y9624D01*
G01X14637Y9635D01*
G01X14634Y9645D01*
G01X14631Y9655D01*
G01X14628Y9665D01*
G01X14624Y9675D01*
G01X14620Y9685D01*
G01X14617Y9694D01*
G01X14613Y9704D01*
G01X14608Y9714D01*
G01X14604Y9723D01*
G01X14599Y9733D01*
G01X14595Y9742D01*
G01X14590Y9752D01*
G01X14585Y9761D01*
G01X14580Y9770D01*
G01X14574Y9779D01*
G01X14569Y9788D01*
G01X14563Y9797D01*
G01X14557Y9806D01*
G01X14551Y9815D01*
G01X14545Y9823D01*
G01X14539Y9832D01*
G01X14532Y9840D01*
G01X14526Y9848D01*
G01X14519Y9856D01*
G01X14512Y9865D01*
G01X14505Y9872D01*
G01X14498Y9880D01*
G01X14491Y9888D01*
G01X14484Y9895D01*
G01X14476Y9903D01*
G01X14468Y9910D01*
G01X14461Y9917D01*
G01X14453Y9924D01*
G01X14445Y9931D01*
G01X14437Y9938D01*
G01X14428Y9944D01*
G01X14420Y9951D01*
G01X14411Y9957D01*
G01X14403Y9963D01*
G01X14394Y9969D01*
G01X14385Y9975D01*
G01X14376Y9981D01*
G01X14367Y9986D01*
G01X14358Y9991D01*
G01X14349Y9997D01*
G01X14340Y10002D01*
G01X14331Y10007D01*
G01X14321Y10011D01*
G01X14312Y10016D01*
G01X14302Y10020D01*
G01X14292Y10024D01*
G01X14283Y10028D01*
G01X14273Y10032D01*
G01X14263Y10036D01*
G01X14253Y10039D01*
G01X14243Y10043D01*
G01X14233Y10046D01*
G01X14223Y10049D01*
G01X14213Y10052D01*
G01X14202Y10054D01*
G01X14192Y10057D01*
G01X14182Y10059D01*
G01X14171Y10061D01*
G01X14161Y10063D01*
G01X14151Y10065D01*
G01X14140Y10067D01*
G01X14130Y10068D01*
G01X14119Y10069D01*
G01X14109Y10070D01*
G01X14098Y10071D01*
G01X14088Y10072D01*
G01X14077Y10072D01*
G01X14067Y10072D01*
G01X14056Y10072D01*
G01X19050Y10072D01*
G01X19050Y8863D01*
G01X14056Y8863D01*
G37*

%LPD*%
G36*
G01X14056Y11403D02*
G01X14067Y11404D01*
G01X14077Y11404D01*
G01X14088Y11404D01*
G01X14098Y11405D01*
G01X14109Y11406D01*
G01X14119Y11407D01*
G01X14130Y11408D01*
G01X14140Y11409D01*
G01X14151Y11411D01*
G01X14161Y11413D01*
G01X14171Y11415D01*
G01X14182Y11417D01*
G01X14192Y11419D01*
G01X14202Y11421D01*
G01X14213Y11424D01*
G01X14223Y11427D01*
G01X14233Y11430D01*
G01X14243Y11433D01*
G01X14253Y11436D01*
G01X14263Y11440D01*
G01X14273Y11444D01*
G01X14283Y11447D01*
G01X14292Y11451D01*
G01X14302Y11456D01*
G01X14312Y11460D01*
G01X14321Y11465D01*
G01X14331Y11469D01*
G01X14340Y11474D01*
G01X14349Y11479D01*
G01X14358Y11484D01*
G01X14367Y11490D01*
G01X14376Y11495D01*
G01X14385Y11501D01*
G01X14394Y11507D01*
G01X14403Y11513D01*
G01X14411Y11519D01*
G01X14420Y11525D01*
G01X14428Y11532D01*
G01X14437Y11538D01*
G01X14445Y11545D01*
G01X14453Y11552D01*
G01X14461Y11559D01*
G01X14468Y11566D01*
G01X14476Y11573D01*
G01X14484Y11580D01*
G01X14491Y11588D01*
G01X14498Y11596D01*
G01X14505Y11603D01*
G01X14512Y11611D01*
G01X14519Y11619D01*
G01X14526Y11627D01*
G01X14532Y11636D01*
G01X14539Y11644D01*
G01X14545Y11653D01*
G01X14551Y11661D01*
G01X14557Y11670D01*
G01X14563Y11679D01*
G01X14569Y11688D01*
G01X14574Y11697D01*
G01X14580Y11706D01*
G01X14585Y11715D01*
G01X14590Y11724D01*
G01X14595Y11733D01*
G01X14599Y11743D01*
G01X14604Y11752D01*
G01X14608Y11762D01*
G01X14613Y11772D01*
G01X14617Y11781D01*
G01X14620Y11791D01*
G01X14624Y11801D01*
G01X14628Y11811D01*
G01X14631Y11821D01*
G01X14634Y11831D01*
G01X14637Y11841D01*
G01X14640Y11851D01*
G01X14643Y11862D01*
G01X14645Y11872D01*
G01X14647Y11882D01*
G01X14650Y11893D01*
G01X14651Y11903D01*
G01X14653Y11913D01*
G01X14655Y11924D01*
G01X14656Y11934D01*
G01X14657Y11945D01*
G01X14658Y11955D01*
G01X14659Y11966D01*
G01X14660Y11976D01*
G01X14660Y11987D01*
G01X14661Y11997D01*
G01X14661Y12008D01*
G01X14661Y12018D01*
G01X14660Y12029D01*
G01X14660Y12040D01*
G01X14659Y12050D01*
G01X14658Y12061D01*
G01X14657Y12071D01*
G01X14656Y12082D01*
G01X14655Y12092D01*
G01X14653Y12102D01*
G01X14651Y12113D01*
G01X14650Y12123D01*
G01X14647Y12134D01*
G01X14645Y12144D01*
G01X14643Y12154D01*
G01X14640Y12164D01*
G01X14637Y12175D01*
G01X14634Y12185D01*
G01X14631Y12195D01*
G01X14628Y12205D01*
G01X14624Y12215D01*
G01X14620Y12225D01*
G01X14617Y12234D01*
G01X14613Y12244D01*
G01X14608Y12254D01*
G01X14604Y12263D01*
G01X14599Y12273D01*
G01X14595Y12282D01*
G01X14590Y12292D01*
G01X14585Y12301D01*
G01X14580Y12310D01*
G01X14574Y12319D01*
G01X14569Y12328D01*
G01X14563Y12337D01*
G01X14557Y12346D01*
G01X14551Y12355D01*
G01X14545Y12363D01*
G01X14539Y12372D01*
G01X14532Y12380D01*
G01X14526Y12388D01*
G01X14519Y12396D01*
G01X14512Y12405D01*
G01X14505Y12412D01*
G01X14498Y12420D01*
G01X14491Y12428D01*
G01X14484Y12435D01*
G01X14476Y12443D01*
G01X14468Y12450D01*
G01X14461Y12457D01*
G01X14453Y12464D01*
G01X14445Y12471D01*
G01X14437Y12478D01*
G01X14428Y12484D01*
G01X14420Y12491D01*
G01X14411Y12497D01*
G01X14403Y12503D01*
G01X14394Y12509D01*
G01X14385Y12515D01*
G01X14376Y12521D01*
G01X14367Y12526D01*
G01X14358Y12531D01*
G01X14349Y12537D01*
G01X14340Y12542D01*
G01X14331Y12547D01*
G01X14321Y12551D01*
G01X14312Y12556D01*
G01X14302Y12560D01*
G01X14292Y12564D01*
G01X14283Y12568D01*
G01X14273Y12572D01*
G01X14263Y12576D01*
G01X14253Y12579D01*
G01X14243Y12583D01*
G01X14233Y12586D01*
G01X14223Y12589D01*
G01X14213Y12592D01*
G01X14202Y12594D01*
G01X14192Y12597D01*
G01X14182Y12599D01*
G01X14171Y12601D01*
G01X14161Y12603D01*
G01X14151Y12605D01*
G01X14140Y12607D01*
G01X14130Y12608D01*
G01X14119Y12609D01*
G01X14109Y12610D01*
G01X14098Y12611D01*
G01X14088Y12612D01*
G01X14077Y12612D01*
G01X14067Y12612D01*
G01X14056Y12612D01*
G01X19050Y12612D01*
G01X19050Y11403D01*
G01X14056Y11403D01*
G37*

%LPD*%
G36*
G01X14056Y10133D02*
G01X14067Y10134D01*
G01X14077Y10134D01*
G01X14088Y10134D01*
G01X14098Y10135D01*
G01X14109Y10136D01*
G01X14119Y10137D01*
G01X14130Y10138D01*
G01X14140Y10139D01*
G01X14151Y10141D01*
G01X14161Y10143D01*
G01X14171Y10145D01*
G01X14182Y10147D01*
G01X14192Y10149D01*
G01X14202Y10151D01*
G01X14213Y10154D01*
G01X14223Y10157D01*
G01X14233Y10160D01*
G01X14243Y10163D01*
G01X14253Y10166D01*
G01X14263Y10170D01*
G01X14273Y10174D01*
G01X14283Y10177D01*
G01X14292Y10181D01*
G01X14302Y10186D01*
G01X14312Y10190D01*
G01X14321Y10195D01*
G01X14331Y10199D01*
G01X14340Y10204D01*
G01X14349Y10209D01*
G01X14358Y10214D01*
G01X14367Y10220D01*
G01X14376Y10225D01*
G01X14385Y10231D01*
G01X14394Y10237D01*
G01X14403Y10243D01*
G01X14411Y10249D01*
G01X14420Y10255D01*
G01X14428Y10262D01*
G01X14437Y10268D01*
G01X14445Y10275D01*
G01X14453Y10282D01*
G01X14461Y10289D01*
G01X14468Y10296D01*
G01X14476Y10303D01*
G01X14484Y10310D01*
G01X14491Y10318D01*
G01X14498Y10326D01*
G01X14505Y10333D01*
G01X14512Y10341D01*
G01X14519Y10349D01*
G01X14526Y10357D01*
G01X14532Y10366D01*
G01X14539Y10374D01*
G01X14545Y10383D01*
G01X14551Y10391D01*
G01X14557Y10400D01*
G01X14563Y10409D01*
G01X14569Y10418D01*
G01X14574Y10427D01*
G01X14580Y10436D01*
G01X14585Y10445D01*
G01X14590Y10454D01*
G01X14595Y10463D01*
G01X14599Y10473D01*
G01X14604Y10482D01*
G01X14608Y10492D01*
G01X14613Y10502D01*
G01X14617Y10511D01*
G01X14620Y10521D01*
G01X14624Y10531D01*
G01X14628Y10541D01*
G01X14631Y10551D01*
G01X14634Y10561D01*
G01X14637Y10571D01*
G01X14640Y10581D01*
G01X14643Y10592D01*
G01X14645Y10602D01*
G01X14647Y10612D01*
G01X14650Y10623D01*
G01X14651Y10633D01*
G01X14653Y10643D01*
G01X14655Y10654D01*
G01X14656Y10664D01*
G01X14657Y10675D01*
G01X14658Y10685D01*
G01X14659Y10696D01*
G01X14660Y10706D01*
G01X14660Y10717D01*
G01X14661Y10727D01*
G01X14661Y10738D01*
G01X14661Y10748D01*
G01X14660Y10759D01*
G01X14660Y10770D01*
G01X14659Y10780D01*
G01X14658Y10791D01*
G01X14657Y10801D01*
G01X14656Y10812D01*
G01X14655Y10822D01*
G01X14653Y10832D01*
G01X14651Y10843D01*
G01X14650Y10853D01*
G01X14647Y10864D01*
G01X14645Y10874D01*
G01X14643Y10884D01*
G01X14640Y10894D01*
G01X14637Y10905D01*
G01X14634Y10915D01*
G01X14631Y10925D01*
G01X14628Y10935D01*
G01X14624Y10945D01*
G01X14620Y10955D01*
G01X14617Y10964D01*
G01X14613Y10974D01*
G01X14608Y10984D01*
G01X14604Y10993D01*
G01X14599Y11003D01*
G01X14595Y11012D01*
G01X14590Y11022D01*
G01X14585Y11031D01*
G01X14580Y11040D01*
G01X14574Y11049D01*
G01X14569Y11058D01*
G01X14563Y11067D01*
G01X14557Y11076D01*
G01X14551Y11085D01*
G01X14545Y11093D01*
G01X14539Y11102D01*
G01X14532Y11110D01*
G01X14526Y11118D01*
G01X14519Y11126D01*
G01X14512Y11135D01*
G01X14505Y11142D01*
G01X14498Y11150D01*
G01X14491Y11158D01*
G01X14484Y11165D01*
G01X14476Y11173D01*
G01X14468Y11180D01*
G01X14461Y11187D01*
G01X14453Y11194D01*
G01X14445Y11201D01*
G01X14437Y11208D01*
G01X14428Y11214D01*
G01X14420Y11221D01*
G01X14411Y11227D01*
G01X14403Y11233D01*
G01X14394Y11239D01*
G01X14385Y11245D01*
G01X14376Y11251D01*
G01X14367Y11256D01*
G01X14358Y11261D01*
G01X14349Y11267D01*
G01X14340Y11272D01*
G01X14331Y11277D01*
G01X14321Y11281D01*
G01X14312Y11286D01*
G01X14302Y11290D01*
G01X14292Y11294D01*
G01X14283Y11298D01*
G01X14273Y11302D01*
G01X14263Y11306D01*
G01X14253Y11309D01*
G01X14243Y11313D01*
G01X14233Y11316D01*
G01X14223Y11319D01*
G01X14213Y11322D01*
G01X14202Y11324D01*
G01X14192Y11327D01*
G01X14182Y11329D01*
G01X14171Y11331D01*
G01X14161Y11333D01*
G01X14151Y11335D01*
G01X14140Y11337D01*
G01X14130Y11338D01*
G01X14119Y11339D01*
G01X14109Y11340D01*
G01X14098Y11341D01*
G01X14088Y11342D01*
G01X14077Y11342D01*
G01X14067Y11342D01*
G01X14056Y11342D01*
G01X19050Y11342D01*
G01X19050Y10133D01*
G01X14056Y10133D01*
G37*

%LPD*%
G36*
G01X14505Y8602D02*
G01X14498Y8610D01*
G01X14491Y8618D01*
G01X14483Y8626D01*
G01X14475Y8633D01*
G01X14468Y8641D01*
G01X14460Y8648D01*
G01X14451Y8655D01*
G01X14443Y8662D01*
G01X14435Y8669D01*
G01X14426Y8676D01*
G01X14418Y8682D01*
G01X14409Y8689D01*
G01X14400Y8695D01*
G01X14392Y8701D01*
G01X14383Y8707D01*
G01X14373Y8712D01*
G01X14364Y8718D01*
G01X14355Y8723D01*
G01X14345Y8729D01*
G01X14336Y8734D01*
G01X14326Y8739D01*
G01X14317Y8743D01*
G01X14307Y8748D01*
G01X14297Y8752D01*
G01X14287Y8757D01*
G01X14277Y8761D01*
G01X14267Y8764D01*
G01X14257Y8768D01*
G01X14247Y8772D01*
G01X14236Y8775D01*
G01X14226Y8778D01*
G01X14216Y8781D01*
G01X14205Y8784D01*
G01X14195Y8786D01*
G01X14184Y8789D01*
G01X14174Y8791D01*
G01X14163Y8793D01*
G01X14153Y8795D01*
G01X14142Y8796D01*
G01X14131Y8798D01*
G01X14121Y8799D01*
G01X14110Y8800D01*
G01X14099Y8801D01*
G01X14088Y8802D01*
G01X14078Y8802D01*
G01X14067Y8802D01*
G01X14056Y8802D01*
G01X19050Y8802D01*
G01X19050Y8602D01*
G01X14505Y8602D01*
G37*

%LPD*%
G36*
G01X178Y10770D02*
G01X193Y10945D01*
G01X210Y11120D01*
G01X231Y11294D01*
G01X255Y11468D01*
G01X282Y11642D01*
G01X311Y11815D01*
G01X344Y11987D01*
G01X380Y12159D01*
G01X419Y12330D01*
G01X462Y12501D01*
G01X507Y12670D01*
G01X555Y12839D01*
G01X606Y13007D01*
G01X660Y13174D01*
G01X717Y13340D01*
G01X777Y13505D01*
G01X840Y13669D01*
G01X906Y13832D01*
G01X975Y13994D01*
G01X1046Y14154D01*
G01X1121Y14313D01*
G01X1198Y14471D01*
G01X1278Y14627D01*
G01X1361Y14782D01*
G01X1446Y14935D01*
G01X1534Y15087D01*
G01X1625Y15237D01*
G01X1719Y15386D01*
G01X1815Y15533D01*
G01X1914Y15678D01*
G01X2015Y15821D01*
G01X2119Y15963D01*
G01X2226Y16102D01*
G01X2334Y16240D01*
G01X2446Y16376D01*
G01X2559Y16510D01*
G01X2675Y16642D01*
G01X2794Y16771D01*
G01X2794Y11564D01*
G01X2000Y10770D01*
G01X178Y10770D01*
G37*

%LPD*%
G36*
G01X14056Y7593D02*
G01X14067Y7594D01*
G01X14078Y7594D01*
G01X14088Y7594D01*
G01X14099Y7595D01*
G01X14110Y7596D01*
G01X14121Y7597D01*
G01X14131Y7598D01*
G01X14142Y7600D01*
G01X14153Y7601D01*
G01X14163Y7603D01*
G01X14174Y7605D01*
G01X14184Y7607D01*
G01X14195Y7610D01*
G01X14205Y7612D01*
G01X14216Y7615D01*
G01X14226Y7618D01*
G01X14236Y7621D01*
G01X14247Y7624D01*
G01X14257Y7628D01*
G01X14267Y7631D01*
G01X14277Y7635D01*
G01X14287Y7639D01*
G01X14297Y7644D01*
G01X14307Y7648D01*
G01X14317Y7652D01*
G01X14326Y7657D01*
G01X14336Y7662D01*
G01X14345Y7667D01*
G01X14355Y7672D01*
G01X14364Y7678D01*
G01X14373Y7683D01*
G01X14383Y7689D01*
G01X14392Y7695D01*
G01X14400Y7701D01*
G01X14409Y7707D01*
G01X14418Y7714D01*
G01X14426Y7720D01*
G01X14435Y7727D01*
G01X14443Y7734D01*
G01X14451Y7741D01*
G01X14460Y7748D01*
G01X14468Y7755D01*
G01X14475Y7762D01*
G01X14483Y7770D01*
G01X14491Y7778D01*
G01X14498Y7785D01*
G01X14505Y7793D01*
G01X14691Y7793D01*
G01X14891Y7593D01*
G01X14056Y7593D01*
G37*

%LPD*%
G36*
G01X2794Y10072D02*
G01X2794Y10133D01*
G01X10922Y10133D01*
G01X10922Y10072D01*
G01X2794Y10072D01*
G37*

%LPD*%
G36*
G01X7257Y8863D02*
G01X7267Y8864D01*
G01X7278Y8864D01*
G01X7288Y8864D01*
G01X7299Y8865D01*
G01X7309Y8866D01*
G01X7320Y8867D01*
G01X7330Y8868D01*
G01X7341Y8869D01*
G01X7351Y8871D01*
G01X7361Y8873D01*
G01X7372Y8875D01*
G01X7382Y8877D01*
G01X7393Y8879D01*
G01X7403Y8881D01*
G01X7413Y8884D01*
G01X7423Y8887D01*
G01X7433Y8890D01*
G01X7443Y8893D01*
G01X7453Y8896D01*
G01X7463Y8900D01*
G01X7473Y8904D01*
G01X7483Y8907D01*
G01X7493Y8911D01*
G01X7502Y8916D01*
G01X7512Y8920D01*
G01X7522Y8925D01*
G01X7531Y8929D01*
G01X7540Y8934D01*
G01X7550Y8939D01*
G01X7559Y8944D01*
G01X7568Y8950D01*
G01X7577Y8955D01*
G01X7586Y8961D01*
G01X7595Y8967D01*
G01X7603Y8973D01*
G01X7612Y8979D01*
G01X7620Y8985D01*
G01X7629Y8992D01*
G01X7637Y8998D01*
G01X7645Y9005D01*
G01X7653Y9012D01*
G01X7661Y9019D01*
G01X7669Y9026D01*
G01X7676Y9033D01*
G01X7684Y9040D01*
G01X7691Y9048D01*
G01X7699Y9056D01*
G01X7706Y9063D01*
G01X7713Y9071D01*
G01X7720Y9079D01*
G01X7726Y9087D01*
G01X7733Y9096D01*
G01X7739Y9104D01*
G01X7746Y9113D01*
G01X7752Y9121D01*
G01X7758Y9130D01*
G01X7764Y9139D01*
G01X7769Y9148D01*
G01X7775Y9157D01*
G01X7780Y9166D01*
G01X7785Y9175D01*
G01X7790Y9184D01*
G01X7795Y9193D01*
G01X7800Y9203D01*
G01X7804Y9212D01*
G01X7809Y9222D01*
G01X7813Y9232D01*
G01X7817Y9241D01*
G01X7821Y9251D01*
G01X7825Y9261D01*
G01X7828Y9271D01*
G01X7831Y9281D01*
G01X7835Y9291D01*
G01X7838Y9301D01*
G01X7840Y9311D01*
G01X7843Y9322D01*
G01X7846Y9332D01*
G01X7848Y9342D01*
G01X7850Y9353D01*
G01X7852Y9363D01*
G01X7854Y9373D01*
G01X7855Y9384D01*
G01X7857Y9394D01*
G01X7858Y9405D01*
G01X7859Y9415D01*
G01X7860Y9426D01*
G01X7860Y9436D01*
G01X7861Y9447D01*
G01X7861Y9457D01*
G01X7861Y9468D01*
G01X7861Y9478D01*
G01X7861Y9489D01*
G01X7860Y9500D01*
G01X7860Y9510D01*
G01X7859Y9521D01*
G01X7858Y9531D01*
G01X7857Y9542D01*
G01X7855Y9552D01*
G01X7854Y9562D01*
G01X7852Y9573D01*
G01X7850Y9583D01*
G01X7848Y9594D01*
G01X7846Y9604D01*
G01X7843Y9614D01*
G01X7840Y9624D01*
G01X7838Y9635D01*
G01X7835Y9645D01*
G01X7831Y9655D01*
G01X7828Y9665D01*
G01X7825Y9675D01*
G01X7821Y9685D01*
G01X7817Y9694D01*
G01X7813Y9704D01*
G01X7809Y9714D01*
G01X7804Y9723D01*
G01X7800Y9733D01*
G01X7795Y9742D01*
G01X7790Y9752D01*
G01X7785Y9761D01*
G01X7780Y9770D01*
G01X7775Y9779D01*
G01X7769Y9788D01*
G01X7764Y9797D01*
G01X7758Y9806D01*
G01X7752Y9815D01*
G01X7746Y9823D01*
G01X7739Y9832D01*
G01X7733Y9840D01*
G01X7726Y9848D01*
G01X7720Y9856D01*
G01X7713Y9865D01*
G01X7706Y9872D01*
G01X7699Y9880D01*
G01X7691Y9888D01*
G01X7684Y9895D01*
G01X7676Y9903D01*
G01X7669Y9910D01*
G01X7661Y9917D01*
G01X7653Y9924D01*
G01X7645Y9931D01*
G01X7637Y9938D01*
G01X7629Y9944D01*
G01X7620Y9951D01*
G01X7612Y9957D01*
G01X7603Y9963D01*
G01X7595Y9969D01*
G01X7586Y9975D01*
G01X7577Y9981D01*
G01X7568Y9986D01*
G01X7559Y9991D01*
G01X7550Y9997D01*
G01X7540Y10002D01*
G01X7531Y10007D01*
G01X7522Y10011D01*
G01X7512Y10016D01*
G01X7502Y10020D01*
G01X7493Y10024D01*
G01X7483Y10028D01*
G01X7473Y10032D01*
G01X7463Y10036D01*
G01X7453Y10039D01*
G01X7443Y10043D01*
G01X7433Y10046D01*
G01X7423Y10049D01*
G01X7413Y10052D01*
G01X7403Y10054D01*
G01X7393Y10057D01*
G01X7382Y10059D01*
G01X7372Y10061D01*
G01X7361Y10063D01*
G01X7351Y10065D01*
G01X7341Y10067D01*
G01X7330Y10068D01*
G01X7320Y10069D01*
G01X7309Y10070D01*
G01X7299Y10071D01*
G01X7288Y10072D01*
G01X7278Y10072D01*
G01X7267Y10072D01*
G01X7257Y10072D01*
G01X10922Y10072D01*
G01X10922Y8863D01*
G01X7257Y8863D01*
G37*

%LPD*%
G36*
G01X7257Y10133D02*
G01X7267Y10134D01*
G01X7278Y10134D01*
G01X7289Y10134D01*
G01X7300Y10135D01*
G01X7310Y10136D01*
G01X7321Y10137D01*
G01X7332Y10138D01*
G01X7342Y10140D01*
G01X7353Y10141D01*
G01X7364Y10143D01*
G01X7374Y10145D01*
G01X7385Y10147D01*
G01X7395Y10150D01*
G01X7406Y10152D01*
G01X7416Y10155D01*
G01X7427Y10158D01*
G01X7437Y10161D01*
G01X7447Y10164D01*
G01X7457Y10168D01*
G01X7467Y10171D01*
G01X7478Y10175D01*
G01X7488Y10179D01*
G01X7497Y10184D01*
G01X7507Y10188D01*
G01X7517Y10192D01*
G01X7527Y10197D01*
G01X7536Y10202D01*
G01X7546Y10207D01*
G01X7555Y10212D01*
G01X7565Y10218D01*
G01X7574Y10223D01*
G01X7583Y10229D01*
G01X7592Y10235D01*
G01X7601Y10241D01*
G01X7610Y10247D01*
G01X7618Y10254D01*
G01X7627Y10260D01*
G01X7635Y10267D01*
G01X7644Y10274D01*
G01X7652Y10281D01*
G01X7660Y10288D01*
G01X7668Y10295D01*
G01X7676Y10302D01*
G01X7683Y10310D01*
G01X7691Y10318D01*
G01X7698Y10325D01*
G01X7706Y10333D01*
G01X10922Y10333D01*
G01X10922Y10133D01*
G01X7257Y10133D01*
G37*

%LPD*%
G36*
G01X10922Y10133D02*
G01X10922Y11342D01*
G01X12555Y11342D01*
G01X12544Y11342D01*
G01X12534Y11342D01*
G01X12523Y11342D01*
G01X12513Y11341D01*
G01X12502Y11340D01*
G01X12492Y11339D01*
G01X12481Y11338D01*
G01X12471Y11337D01*
G01X12460Y11335D01*
G01X12450Y11333D01*
G01X12440Y11331D01*
G01X12429Y11329D01*
G01X12419Y11327D01*
G01X12409Y11324D01*
G01X12399Y11322D01*
G01X12388Y11319D01*
G01X12378Y11316D01*
G01X12368Y11313D01*
G01X12358Y11309D01*
G01X12348Y11306D01*
G01X12338Y11302D01*
G01X12329Y11298D01*
G01X12319Y11294D01*
G01X12309Y11290D01*
G01X12299Y11286D01*
G01X12290Y11281D01*
G01X12281Y11277D01*
G01X12271Y11272D01*
G01X12262Y11267D01*
G01X12253Y11261D01*
G01X12244Y11256D01*
G01X12235Y11251D01*
G01X12226Y11245D01*
G01X12217Y11239D01*
G01X12208Y11233D01*
G01X12200Y11227D01*
G01X12191Y11221D01*
G01X12183Y11214D01*
G01X12175Y11208D01*
G01X12166Y11201D01*
G01X12158Y11194D01*
G01X12150Y11187D01*
G01X12143Y11180D01*
G01X12135Y11173D01*
G01X12128Y11165D01*
G01X12120Y11158D01*
G01X12113Y11150D01*
G01X12106Y11142D01*
G01X12099Y11135D01*
G01X12092Y11126D01*
G01X12085Y11118D01*
G01X12079Y11110D01*
G01X12072Y11102D01*
G01X12066Y11093D01*
G01X12060Y11085D01*
G01X12054Y11076D01*
G01X12048Y11067D01*
G01X12042Y11058D01*
G01X12037Y11049D01*
G01X12031Y11040D01*
G01X12026Y11031D01*
G01X12021Y11022D01*
G01X12016Y11012D01*
G01X12012Y11003D01*
G01X12007Y10993D01*
G01X12003Y10984D01*
G01X11999Y10974D01*
G01X11994Y10964D01*
G01X11991Y10955D01*
G01X11987Y10945D01*
G01X11983Y10935D01*
G01X11980Y10925D01*
G01X11977Y10915D01*
G01X11974Y10905D01*
G01X11971Y10894D01*
G01X11968Y10884D01*
G01X11966Y10874D01*
G01X11964Y10864D01*
G01X11962Y10853D01*
G01X11960Y10843D01*
G01X11958Y10832D01*
G01X11956Y10822D01*
G01X11955Y10812D01*
G01X11954Y10801D01*
G01X11953Y10791D01*
G01X11952Y10780D01*
G01X11951Y10770D01*
G01X11951Y10759D01*
G01X11951Y10748D01*
G01X11950Y10738D01*
G01X11951Y10727D01*
G01X11951Y10717D01*
G01X11951Y10706D01*
G01X11952Y10696D01*
G01X11953Y10685D01*
G01X11954Y10675D01*
G01X11955Y10664D01*
G01X11956Y10654D01*
G01X11958Y10643D01*
G01X11960Y10633D01*
G01X11962Y10623D01*
G01X11964Y10612D01*
G01X11966Y10602D01*
G01X11968Y10592D01*
G01X11971Y10581D01*
G01X11974Y10571D01*
G01X11977Y10561D01*
G01X11980Y10551D01*
G01X11983Y10541D01*
G01X11987Y10531D01*
G01X11991Y10521D01*
G01X11994Y10511D01*
G01X11999Y10502D01*
G01X12003Y10492D01*
G01X12007Y10482D01*
G01X12012Y10473D01*
G01X12016Y10463D01*
G01X12021Y10454D01*
G01X12026Y10445D01*
G01X12031Y10436D01*
G01X12037Y10427D01*
G01X12042Y10418D01*
G01X12048Y10409D01*
G01X12054Y10400D01*
G01X12060Y10391D01*
G01X12066Y10383D01*
G01X12072Y10374D01*
G01X12079Y10366D01*
G01X12085Y10357D01*
G01X12092Y10349D01*
G01X12099Y10341D01*
G01X12106Y10333D01*
G01X12113Y10326D01*
G01X12120Y10318D01*
G01X12128Y10310D01*
G01X12135Y10303D01*
G01X12143Y10296D01*
G01X12150Y10289D01*
G01X12158Y10282D01*
G01X12166Y10275D01*
G01X12175Y10268D01*
G01X12183Y10262D01*
G01X12191Y10255D01*
G01X12200Y10249D01*
G01X12208Y10243D01*
G01X12217Y10237D01*
G01X12226Y10231D01*
G01X12235Y10225D01*
G01X12244Y10220D01*
G01X12253Y10214D01*
G01X12262Y10209D01*
G01X12271Y10204D01*
G01X12281Y10199D01*
G01X12290Y10195D01*
G01X12299Y10190D01*
G01X12309Y10186D01*
G01X12319Y10181D01*
G01X12329Y10177D01*
G01X12338Y10174D01*
G01X12348Y10170D01*
G01X12358Y10166D01*
G01X12368Y10163D01*
G01X12378Y10160D01*
G01X12388Y10157D01*
G01X12399Y10154D01*
G01X12409Y10151D01*
G01X12419Y10149D01*
G01X12429Y10147D01*
G01X12440Y10145D01*
G01X12450Y10143D01*
G01X12460Y10141D01*
G01X12471Y10139D01*
G01X12481Y10138D01*
G01X12492Y10137D01*
G01X12502Y10136D01*
G01X12513Y10135D01*
G01X12523Y10134D01*
G01X12534Y10134D01*
G01X12544Y10134D01*
G01X12555Y10133D01*
G01X10922Y10133D01*
G37*

%LPD*%
G36*
G01X10922Y8863D02*
G01X10922Y10072D01*
G01X12555Y10072D01*
G01X12544Y10072D01*
G01X12534Y10072D01*
G01X12523Y10072D01*
G01X12513Y10071D01*
G01X12502Y10070D01*
G01X12492Y10069D01*
G01X12481Y10068D01*
G01X12471Y10067D01*
G01X12460Y10065D01*
G01X12450Y10063D01*
G01X12440Y10061D01*
G01X12429Y10059D01*
G01X12419Y10057D01*
G01X12409Y10054D01*
G01X12399Y10052D01*
G01X12388Y10049D01*
G01X12378Y10046D01*
G01X12368Y10043D01*
G01X12358Y10039D01*
G01X12348Y10036D01*
G01X12338Y10032D01*
G01X12329Y10028D01*
G01X12319Y10024D01*
G01X12309Y10020D01*
G01X12299Y10016D01*
G01X12290Y10011D01*
G01X12281Y10007D01*
G01X12271Y10002D01*
G01X12262Y9997D01*
G01X12253Y9991D01*
G01X12244Y9986D01*
G01X12235Y9981D01*
G01X12226Y9975D01*
G01X12217Y9969D01*
G01X12208Y9963D01*
G01X12200Y9957D01*
G01X12191Y9951D01*
G01X12183Y9944D01*
G01X12175Y9938D01*
G01X12166Y9931D01*
G01X12158Y9924D01*
G01X12150Y9917D01*
G01X12143Y9910D01*
G01X12135Y9903D01*
G01X12128Y9895D01*
G01X12120Y9888D01*
G01X12113Y9880D01*
G01X12106Y9872D01*
G01X12099Y9865D01*
G01X12092Y9856D01*
G01X12085Y9848D01*
G01X12079Y9840D01*
G01X12072Y9832D01*
G01X12066Y9823D01*
G01X12060Y9815D01*
G01X12054Y9806D01*
G01X12048Y9797D01*
G01X12042Y9788D01*
G01X12037Y9779D01*
G01X12031Y9770D01*
G01X12026Y9761D01*
G01X12021Y9752D01*
G01X12016Y9742D01*
G01X12012Y9733D01*
G01X12007Y9723D01*
G01X12003Y9714D01*
G01X11999Y9704D01*
G01X11994Y9694D01*
G01X11991Y9685D01*
G01X11987Y9675D01*
G01X11983Y9665D01*
G01X11980Y9655D01*
G01X11977Y9645D01*
G01X11974Y9635D01*
G01X11971Y9624D01*
G01X11968Y9614D01*
G01X11966Y9604D01*
G01X11964Y9594D01*
G01X11962Y9583D01*
G01X11960Y9573D01*
G01X11958Y9562D01*
G01X11956Y9552D01*
G01X11955Y9542D01*
G01X11954Y9531D01*
G01X11953Y9521D01*
G01X11952Y9510D01*
G01X11951Y9500D01*
G01X11951Y9489D01*
G01X11951Y9478D01*
G01X11950Y9468D01*
G01X11951Y9457D01*
G01X11951Y9447D01*
G01X11951Y9436D01*
G01X11952Y9426D01*
G01X11953Y9415D01*
G01X11954Y9405D01*
G01X11955Y9394D01*
G01X11956Y9384D01*
G01X11958Y9373D01*
G01X11960Y9363D01*
G01X11962Y9353D01*
G01X11964Y9342D01*
G01X11966Y9332D01*
G01X11968Y9322D01*
G01X11971Y9311D01*
G01X11974Y9301D01*
G01X11977Y9291D01*
G01X11980Y9281D01*
G01X11983Y9271D01*
G01X11987Y9261D01*
G01X11991Y9251D01*
G01X11994Y9241D01*
G01X11999Y9232D01*
G01X12003Y9222D01*
G01X12007Y9212D01*
G01X12012Y9203D01*
G01X12016Y9193D01*
G01X12021Y9184D01*
G01X12026Y9175D01*
G01X12031Y9166D01*
G01X12037Y9157D01*
G01X12042Y9148D01*
G01X12048Y9139D01*
G01X12054Y9130D01*
G01X12060Y9121D01*
G01X12066Y9113D01*
G01X12072Y9104D01*
G01X12079Y9096D01*
G01X12085Y9087D01*
G01X12092Y9079D01*
G01X12099Y9071D01*
G01X12106Y9063D01*
G01X12113Y9056D01*
G01X12120Y9048D01*
G01X12128Y9040D01*
G01X12135Y9033D01*
G01X12143Y9026D01*
G01X12150Y9019D01*
G01X12158Y9012D01*
G01X12166Y9005D01*
G01X12175Y8998D01*
G01X12183Y8992D01*
G01X12191Y8985D01*
G01X12200Y8979D01*
G01X12208Y8973D01*
G01X12217Y8967D01*
G01X12226Y8961D01*
G01X12235Y8955D01*
G01X12244Y8950D01*
G01X12253Y8944D01*
G01X12262Y8939D01*
G01X12271Y8934D01*
G01X12281Y8929D01*
G01X12290Y8925D01*
G01X12299Y8920D01*
G01X12309Y8916D01*
G01X12319Y8911D01*
G01X12329Y8907D01*
G01X12338Y8904D01*
G01X12348Y8900D01*
G01X12358Y8896D01*
G01X12368Y8893D01*
G01X12378Y8890D01*
G01X12388Y8887D01*
G01X12399Y8884D01*
G01X12409Y8881D01*
G01X12419Y8879D01*
G01X12429Y8877D01*
G01X12440Y8875D01*
G01X12450Y8873D01*
G01X12460Y8871D01*
G01X12471Y8869D01*
G01X12481Y8868D01*
G01X12492Y8867D01*
G01X12502Y8866D01*
G01X12513Y8865D01*
G01X12523Y8864D01*
G01X12534Y8864D01*
G01X12544Y8864D01*
G01X12555Y8863D01*
G01X10922Y8863D01*
G37*

%LPD*%
G36*
G01X2794Y8802D02*
G01X2794Y8863D01*
G01X10922Y8863D01*
G01X10922Y8802D01*
G01X2794Y8802D01*
G37*

%LPD*%
G36*
G01X7257Y7593D02*
G01X7267Y7594D01*
G01X7278Y7594D01*
G01X7288Y7594D01*
G01X7299Y7595D01*
G01X7309Y7596D01*
G01X7320Y7597D01*
G01X7330Y7598D01*
G01X7341Y7599D01*
G01X7351Y7601D01*
G01X7361Y7603D01*
G01X7372Y7605D01*
G01X7382Y7607D01*
G01X7393Y7609D01*
G01X7403Y7611D01*
G01X7413Y7614D01*
G01X7423Y7617D01*
G01X7433Y7620D01*
G01X7443Y7623D01*
G01X7453Y7626D01*
G01X7463Y7630D01*
G01X7473Y7634D01*
G01X7483Y7637D01*
G01X7493Y7641D01*
G01X7502Y7646D01*
G01X7512Y7650D01*
G01X7522Y7655D01*
G01X7531Y7659D01*
G01X7540Y7664D01*
G01X7550Y7669D01*
G01X7559Y7674D01*
G01X7568Y7680D01*
G01X7577Y7685D01*
G01X7586Y7691D01*
G01X7595Y7697D01*
G01X7603Y7703D01*
G01X7612Y7709D01*
G01X7620Y7715D01*
G01X7629Y7722D01*
G01X7637Y7728D01*
G01X7645Y7735D01*
G01X7653Y7742D01*
G01X7661Y7749D01*
G01X7669Y7756D01*
G01X7676Y7763D01*
G01X7684Y7770D01*
G01X7691Y7778D01*
G01X7699Y7786D01*
G01X7706Y7793D01*
G01X7713Y7801D01*
G01X7720Y7809D01*
G01X7726Y7817D01*
G01X7733Y7826D01*
G01X7739Y7834D01*
G01X7746Y7843D01*
G01X7752Y7851D01*
G01X7758Y7860D01*
G01X7764Y7869D01*
G01X7769Y7878D01*
G01X7775Y7887D01*
G01X7780Y7896D01*
G01X7785Y7905D01*
G01X7790Y7914D01*
G01X7795Y7923D01*
G01X7800Y7933D01*
G01X7804Y7942D01*
G01X7809Y7952D01*
G01X7813Y7962D01*
G01X7817Y7971D01*
G01X7821Y7981D01*
G01X7825Y7991D01*
G01X7828Y8001D01*
G01X7831Y8011D01*
G01X7835Y8021D01*
G01X7838Y8031D01*
G01X7840Y8041D01*
G01X7843Y8052D01*
G01X7846Y8062D01*
G01X7848Y8072D01*
G01X7850Y8083D01*
G01X7852Y8093D01*
G01X7854Y8103D01*
G01X7855Y8114D01*
G01X7857Y8124D01*
G01X7858Y8135D01*
G01X7859Y8145D01*
G01X7860Y8156D01*
G01X7860Y8166D01*
G01X7861Y8177D01*
G01X7861Y8187D01*
G01X7861Y8198D01*
G01X7861Y8208D01*
G01X7861Y8219D01*
G01X7860Y8230D01*
G01X7860Y8240D01*
G01X7859Y8251D01*
G01X7858Y8261D01*
G01X7857Y8272D01*
G01X7855Y8282D01*
G01X7854Y8292D01*
G01X7852Y8303D01*
G01X7850Y8313D01*
G01X7848Y8324D01*
G01X7846Y8334D01*
G01X7843Y8344D01*
G01X7840Y8354D01*
G01X7838Y8365D01*
G01X7835Y8375D01*
G01X7831Y8385D01*
G01X7828Y8395D01*
G01X7825Y8405D01*
G01X7821Y8415D01*
G01X7817Y8424D01*
G01X7813Y8434D01*
G01X7809Y8444D01*
G01X7804Y8453D01*
G01X7800Y8463D01*
G01X7795Y8472D01*
G01X7790Y8482D01*
G01X7785Y8491D01*
G01X7780Y8500D01*
G01X7775Y8509D01*
G01X7769Y8518D01*
G01X7764Y8527D01*
G01X7758Y8536D01*
G01X7752Y8545D01*
G01X7746Y8553D01*
G01X7739Y8562D01*
G01X7733Y8570D01*
G01X7726Y8578D01*
G01X7720Y8586D01*
G01X7713Y8595D01*
G01X7706Y8602D01*
G01X7699Y8610D01*
G01X7691Y8618D01*
G01X7684Y8625D01*
G01X7676Y8633D01*
G01X7669Y8640D01*
G01X7661Y8647D01*
G01X7653Y8654D01*
G01X7645Y8661D01*
G01X7637Y8668D01*
G01X7629Y8674D01*
G01X7620Y8681D01*
G01X7612Y8687D01*
G01X7603Y8693D01*
G01X7595Y8699D01*
G01X7586Y8705D01*
G01X7577Y8711D01*
G01X7568Y8716D01*
G01X7559Y8721D01*
G01X7550Y8727D01*
G01X7540Y8732D01*
G01X7531Y8737D01*
G01X7522Y8741D01*
G01X7512Y8746D01*
G01X7502Y8750D01*
G01X7493Y8754D01*
G01X7483Y8758D01*
G01X7473Y8762D01*
G01X7463Y8766D01*
G01X7453Y8769D01*
G01X7443Y8773D01*
G01X7433Y8776D01*
G01X7423Y8779D01*
G01X7413Y8782D01*
G01X7403Y8784D01*
G01X7393Y8787D01*
G01X7382Y8789D01*
G01X7372Y8791D01*
G01X7361Y8793D01*
G01X7351Y8795D01*
G01X7341Y8797D01*
G01X7330Y8798D01*
G01X7320Y8799D01*
G01X7309Y8800D01*
G01X7299Y8801D01*
G01X7288Y8802D01*
G01X7278Y8802D01*
G01X7267Y8802D01*
G01X7257Y8802D01*
G01X10922Y8802D01*
G01X10922Y7593D01*
G01X7257Y7593D01*
G37*

%LPD*%
G36*
G01X10922Y6865D02*
G01X10922Y8802D01*
G01X12555Y8802D01*
G01X12555Y8802D01*
G01X12544Y8802D01*
G01X12534Y8802D01*
G01X12523Y8802D01*
G01X12513Y8801D01*
G01X12502Y8800D01*
G01X12492Y8799D01*
G01X12481Y8798D01*
G01X12471Y8797D01*
G01X12460Y8795D01*
G01X12450Y8793D01*
G01X12439Y8791D01*
G01X12429Y8789D01*
G01X12418Y8787D01*
G01X12408Y8784D01*
G01X12398Y8782D01*
G01X12388Y8779D01*
G01X12378Y8776D01*
G01X12367Y8773D01*
G01X12357Y8769D01*
G01X12347Y8766D01*
G01X12338Y8762D01*
G01X12328Y8758D01*
G01X12318Y8754D01*
G01X12308Y8750D01*
G01X12299Y8745D01*
G01X12289Y8741D01*
G01X12280Y8736D01*
G01X12270Y8731D01*
G01X12261Y8726D01*
G01X12252Y8721D01*
G01X12243Y8715D01*
G01X12234Y8710D01*
G01X12225Y8704D01*
G01X12216Y8698D01*
G01X12207Y8692D01*
G01X12198Y8686D01*
G01X12190Y8680D01*
G01X12182Y8673D01*
G01X12173Y8667D01*
G01X12165Y8660D01*
G01X12157Y8653D01*
G01X12149Y8646D01*
G01X12141Y8639D01*
G01X12134Y8632D01*
G01X12126Y8624D01*
G01X12119Y8617D01*
G01X12112Y8609D01*
G01X12104Y8601D01*
G01X12097Y8593D01*
G01X12091Y8585D01*
G01X12084Y8577D01*
G01X12077Y8568D01*
G01X12071Y8560D01*
G01X12065Y8551D01*
G01X12059Y8543D01*
G01X12053Y8534D01*
G01X12047Y8525D01*
G01X12041Y8516D01*
G01X12036Y8507D01*
G01X12030Y8498D01*
G01X12025Y8489D01*
G01X12020Y8480D01*
G01X12015Y8470D01*
G01X12011Y8461D01*
G01X12006Y8451D01*
G01X12002Y8441D01*
G01X11997Y8432D01*
G01X11993Y8422D01*
G01X11990Y8412D01*
G01X11986Y8402D01*
G01X11982Y8392D01*
G01X11979Y8382D01*
G01X11976Y8372D01*
G01X11973Y8362D01*
G01X11970Y8351D01*
G01X11968Y8341D01*
G01X11965Y8331D01*
G01X11963Y8321D01*
G01X11961Y8310D01*
G01X11959Y8300D01*
G01X11957Y8289D01*
G01X11956Y8279D01*
G01X11955Y8268D01*
G01X11953Y8258D01*
G01X11952Y8247D01*
G01X11952Y8237D01*
G01X11951Y8226D01*
G01X11951Y8215D01*
G01X11950Y8205D01*
G01X11950Y8194D01*
G01X11951Y8184D01*
G01X11951Y8173D01*
G01X11951Y8163D01*
G01X11952Y8152D01*
G01X11953Y8141D01*
G01X11954Y8131D01*
G01X11955Y8120D01*
G01X11957Y8110D01*
G01X11959Y8099D01*
G01X11960Y8089D01*
G01X11962Y8079D01*
G01X11965Y8068D01*
G01X11967Y8058D01*
G01X11969Y8048D01*
G01X11972Y8037D01*
G01X11975Y8027D01*
G01X11978Y8017D01*
G01X11981Y8007D01*
G01X11985Y7997D01*
G01X11988Y7987D01*
G01X11992Y7977D01*
G01X11996Y7967D01*
G01X12000Y7958D01*
G01X12005Y7948D01*
G01X10922Y6865D01*
G37*

%LPD*%
G36*
G01X10319Y11214D02*
G01X10319Y11214D01*
G01X10324Y11219D01*
G01X10329Y11224D01*
G01X10334Y11230D01*
G01X10338Y11235D01*
G01X10343Y11241D01*
G01X10348Y11246D01*
G01X10352Y11252D01*
G01X10357Y11258D01*
G01X10361Y11263D01*
G01X10365Y11269D01*
G01X10369Y11275D01*
G01X10373Y11281D01*
G01X10377Y11287D01*
G01X10381Y11294D01*
G01X10384Y11300D01*
G01X10388Y11306D01*
G01X10391Y11312D01*
G01X10394Y11319D01*
G01X10398Y11325D01*
G01X10401Y11332D01*
G01X10404Y11338D01*
G01X10406Y11345D01*
G01X10409Y11352D01*
G01X10412Y11359D01*
G01X10414Y11365D01*
G01X10417Y11372D01*
G01X10419Y11379D01*
G01X10421Y11386D01*
G01X10423Y11393D01*
G01X10425Y11400D01*
G01X10426Y11407D01*
G01X10428Y11414D01*
G01X10429Y11421D01*
G01X10431Y11428D01*
G01X10432Y11435D01*
G01X10433Y11442D01*
G01X10434Y11450D01*
G01X10435Y11457D01*
G01X10436Y11464D01*
G01X10436Y11471D01*
G01X10437Y11478D01*
G01X10437Y11485D01*
G01X10437Y11493D01*
G01X10437Y11500D01*
G01X10437Y15043D01*
G01X10444Y15050D01*
G01X10451Y15058D01*
G01X10457Y15065D01*
G01X10464Y15073D01*
G01X10470Y15080D01*
G01X10476Y15088D01*
G01X10482Y15096D01*
G01X10488Y15104D01*
G01X10494Y15112D01*
G01X10500Y15120D01*
G01X10505Y15128D01*
G01X10510Y15136D01*
G01X10516Y15145D01*
G01X10521Y15153D01*
G01X10525Y15162D01*
G01X10530Y15170D01*
G01X10535Y15179D01*
G01X10539Y15188D01*
G01X10543Y15197D01*
G01X10548Y15206D01*
G01X10552Y15215D01*
G01X10555Y15224D01*
G01X10559Y15233D01*
G01X10562Y15242D01*
G01X10566Y15252D01*
G01X10569Y15261D01*
G01X10572Y15270D01*
G01X10575Y15280D01*
G01X10577Y15289D01*
G01X10580Y15299D01*
G01X10582Y15308D01*
G01X10584Y15318D01*
G01X10586Y15328D01*
G01X10588Y15337D01*
G01X10590Y15347D01*
G01X10591Y15357D01*
G01X10593Y15367D01*
G01X10594Y15376D01*
G01X10595Y15386D01*
G01X10596Y15396D01*
G01X10596Y15406D01*
G01X10597Y15416D01*
G01X10597Y15426D01*
G01X10597Y15435D01*
G01X10597Y15445D01*
G01X10597Y15455D01*
G01X10596Y15465D01*
G01X10596Y15475D01*
G01X10595Y15485D01*
G01X10594Y15495D01*
G01X10593Y15504D01*
G01X10592Y15514D01*
G01X10590Y15524D01*
G01X10589Y15534D01*
G01X10587Y15543D01*
G01X10585Y15553D01*
G01X10583Y15563D01*
G01X10581Y15572D01*
G01X10578Y15582D01*
G01X10576Y15591D01*
G01X10573Y15601D01*
G01X10570Y15610D01*
G01X10567Y15620D01*
G01X10563Y15629D01*
G01X10560Y15638D01*
G01X10556Y15647D01*
G01X10553Y15656D01*
G01X10549Y15666D01*
G01X10545Y15675D01*
G01X10540Y15683D01*
G01X10536Y15692D01*
G01X10532Y15701D01*
G01X10527Y15710D01*
G01X10522Y15718D01*
G01X10517Y15727D01*
G01X10512Y15735D01*
G01X10507Y15744D01*
G01X10501Y15752D01*
G01X10496Y15760D01*
G01X10490Y15768D01*
G01X10484Y15776D01*
G01X10478Y15784D01*
G01X10472Y15791D01*
G01X10466Y15799D01*
G01X10459Y15807D01*
G01X10453Y15814D01*
G01X10446Y15821D01*
G01X10439Y15828D01*
G01X10432Y15836D01*
G01X10425Y15842D01*
G01X10418Y15849D01*
G01X10411Y15856D01*
G01X10404Y15862D01*
G01X10396Y15869D01*
G01X10388Y15875D01*
G01X10381Y15881D01*
G01X10373Y15887D01*
G01X10365Y15893D01*
G01X10357Y15899D01*
G01X10349Y15905D01*
G01X10341Y15910D01*
G01X10332Y15915D01*
G01X10324Y15920D01*
G01X10315Y15925D01*
G01X10307Y15930D01*
G01X10298Y15935D01*
G01X10289Y15940D01*
G01X10281Y15944D01*
G01X10272Y15948D01*
G01X10263Y15952D01*
G01X10254Y15956D01*
G01X10244Y15960D01*
G01X10235Y15964D01*
G01X10226Y15967D01*
G01X10217Y15970D01*
G01X10207Y15974D01*
G01X10198Y15977D01*
G01X10189Y15979D01*
G01X10179Y15982D01*
G01X10169Y15984D01*
G01X10160Y15987D01*
G01X10150Y15989D01*
G01X10141Y15991D01*
G01X10131Y15993D01*
G01X10121Y15994D01*
G01X10111Y15996D01*
G01X10102Y15997D01*
G01X10092Y15998D01*
G01X10082Y15999D01*
G01X10072Y16000D01*
G01X10062Y16001D01*
G01X10052Y16001D01*
G01X10043Y16001D01*
G01X10033Y16001D01*
G01X10922Y16001D01*
G01X10922Y11214D01*
G01X10319Y11214D01*
G37*

%LPD*%
G36*
G01X10922Y11403D02*
G01X10922Y12612D01*
G01X12555Y12612D01*
G01X12544Y12612D01*
G01X12534Y12612D01*
G01X12523Y12612D01*
G01X12513Y12611D01*
G01X12502Y12610D01*
G01X12492Y12609D01*
G01X12481Y12608D01*
G01X12471Y12607D01*
G01X12460Y12605D01*
G01X12450Y12603D01*
G01X12440Y12601D01*
G01X12429Y12599D01*
G01X12419Y12597D01*
G01X12409Y12594D01*
G01X12399Y12592D01*
G01X12388Y12589D01*
G01X12378Y12586D01*
G01X12368Y12583D01*
G01X12358Y12579D01*
G01X12348Y12576D01*
G01X12338Y12572D01*
G01X12329Y12568D01*
G01X12319Y12564D01*
G01X12309Y12560D01*
G01X12299Y12556D01*
G01X12290Y12551D01*
G01X12281Y12547D01*
G01X12271Y12542D01*
G01X12262Y12537D01*
G01X12253Y12531D01*
G01X12244Y12526D01*
G01X12235Y12521D01*
G01X12226Y12515D01*
G01X12217Y12509D01*
G01X12208Y12503D01*
G01X12200Y12497D01*
G01X12191Y12491D01*
G01X12183Y12484D01*
G01X12175Y12478D01*
G01X12166Y12471D01*
G01X12158Y12464D01*
G01X12150Y12457D01*
G01X12143Y12450D01*
G01X12135Y12443D01*
G01X12128Y12435D01*
G01X12120Y12428D01*
G01X12113Y12420D01*
G01X12106Y12412D01*
G01X12099Y12405D01*
G01X12092Y12396D01*
G01X12085Y12388D01*
G01X12079Y12380D01*
G01X12072Y12372D01*
G01X12066Y12363D01*
G01X12060Y12355D01*
G01X12054Y12346D01*
G01X12048Y12337D01*
G01X12042Y12328D01*
G01X12037Y12319D01*
G01X12031Y12310D01*
G01X12026Y12301D01*
G01X12021Y12292D01*
G01X12016Y12282D01*
G01X12012Y12273D01*
G01X12007Y12263D01*
G01X12003Y12254D01*
G01X11999Y12244D01*
G01X11994Y12234D01*
G01X11991Y12225D01*
G01X11987Y12215D01*
G01X11983Y12205D01*
G01X11980Y12195D01*
G01X11977Y12185D01*
G01X11974Y12175D01*
G01X11971Y12164D01*
G01X11968Y12154D01*
G01X11966Y12144D01*
G01X11964Y12134D01*
G01X11962Y12123D01*
G01X11960Y12113D01*
G01X11958Y12102D01*
G01X11956Y12092D01*
G01X11955Y12082D01*
G01X11954Y12071D01*
G01X11953Y12061D01*
G01X11952Y12050D01*
G01X11951Y12040D01*
G01X11951Y12029D01*
G01X11951Y12018D01*
G01X11950Y12008D01*
G01X11951Y11997D01*
G01X11951Y11987D01*
G01X11951Y11976D01*
G01X11952Y11966D01*
G01X11953Y11955D01*
G01X11954Y11945D01*
G01X11955Y11934D01*
G01X11956Y11924D01*
G01X11958Y11913D01*
G01X11960Y11903D01*
G01X11962Y11893D01*
G01X11964Y11882D01*
G01X11966Y11872D01*
G01X11968Y11862D01*
G01X11971Y11851D01*
G01X11974Y11841D01*
G01X11977Y11831D01*
G01X11980Y11821D01*
G01X11983Y11811D01*
G01X11987Y11801D01*
G01X11991Y11791D01*
G01X11994Y11781D01*
G01X11999Y11772D01*
G01X12003Y11762D01*
G01X12007Y11752D01*
G01X12012Y11743D01*
G01X12016Y11733D01*
G01X12021Y11724D01*
G01X12026Y11715D01*
G01X12031Y11706D01*
G01X12037Y11697D01*
G01X12042Y11688D01*
G01X12048Y11679D01*
G01X12054Y11670D01*
G01X12060Y11661D01*
G01X12066Y11653D01*
G01X12072Y11644D01*
G01X12079Y11636D01*
G01X12085Y11627D01*
G01X12092Y11619D01*
G01X12099Y11611D01*
G01X12106Y11603D01*
G01X12113Y11596D01*
G01X12120Y11588D01*
G01X12128Y11580D01*
G01X12135Y11573D01*
G01X12143Y11566D01*
G01X12150Y11559D01*
G01X12158Y11552D01*
G01X12166Y11545D01*
G01X12175Y11538D01*
G01X12183Y11532D01*
G01X12191Y11525D01*
G01X12200Y11519D01*
G01X12208Y11513D01*
G01X12217Y11507D01*
G01X12226Y11501D01*
G01X12235Y11495D01*
G01X12244Y11490D01*
G01X12253Y11484D01*
G01X12262Y11479D01*
G01X12271Y11474D01*
G01X12281Y11469D01*
G01X12290Y11465D01*
G01X12299Y11460D01*
G01X12309Y11456D01*
G01X12319Y11451D01*
G01X12329Y11447D01*
G01X12338Y11444D01*
G01X12348Y11440D01*
G01X12358Y11436D01*
G01X12368Y11433D01*
G01X12378Y11430D01*
G01X12388Y11427D01*
G01X12399Y11424D01*
G01X12409Y11421D01*
G01X12419Y11419D01*
G01X12429Y11417D01*
G01X12440Y11415D01*
G01X12450Y11413D01*
G01X12460Y11411D01*
G01X12471Y11409D01*
G01X12481Y11408D01*
G01X12492Y11407D01*
G01X12502Y11406D01*
G01X12513Y11405D01*
G01X12523Y11404D01*
G01X12534Y11404D01*
G01X12544Y11404D01*
G01X12555Y11403D01*
G01X10922Y11403D01*
G37*

%LPD*%
G36*
G01X10922Y14726D02*
G01X10922Y15297D01*
G01X14275Y15297D01*
G01X14275Y15297D01*
G01X14282Y15280D01*
G01X14290Y15263D01*
G01X14297Y15247D01*
G01X14305Y15230D01*
G01X14314Y15214D01*
G01X14322Y15197D01*
G01X14331Y15181D01*
G01X14340Y15165D01*
G01X14350Y15149D01*
G01X14359Y15134D01*
G01X14369Y15118D01*
G01X14380Y15103D01*
G01X14390Y15088D01*
G01X14401Y15073D01*
G01X14412Y15058D01*
G01X14423Y15044D01*
G01X14435Y15029D01*
G01X14447Y15015D01*
G01X14459Y15001D01*
G01X14471Y14987D01*
G01X14484Y14974D01*
G01X14497Y14961D01*
G01X14510Y14948D01*
G01X14523Y14935D01*
G01X14536Y14922D01*
G01X14550Y14910D01*
G01X14564Y14898D01*
G01X14578Y14886D01*
G01X14592Y14875D01*
G01X14607Y14863D01*
G01X14622Y14852D01*
G01X14637Y14841D01*
G01X14652Y14831D01*
G01X14667Y14821D01*
G01X14682Y14811D01*
G01X14698Y14801D01*
G01X14714Y14791D01*
G01X14730Y14782D01*
G01X14746Y14773D01*
G01X14762Y14765D01*
G01X14779Y14757D01*
G01X14795Y14748D01*
G01X14812Y14741D01*
G01X14829Y14733D01*
G01X14846Y14726D01*
G01X10922Y14726D01*
G37*

%LPD*%
G36*
G01X14846Y14726D02*
G01X14846Y15297D01*
G01X15633Y15297D01*
G01X15633Y14726D01*
G01X14846Y14726D01*
G37*

%LPD*%
G36*
G01X15633Y14726D02*
G01X15633Y14726D01*
G01X15650Y14733D01*
G01X15667Y14741D01*
G01X15684Y14748D01*
G01X15701Y14757D01*
G01X15717Y14765D01*
G01X15733Y14773D01*
G01X15750Y14782D01*
G01X15766Y14791D01*
G01X15781Y14801D01*
G01X15797Y14811D01*
G01X15812Y14821D01*
G01X15828Y14831D01*
G01X15843Y14841D01*
G01X15858Y14852D01*
G01X15873Y14863D01*
G01X15887Y14875D01*
G01X15901Y14886D01*
G01X15916Y14898D01*
G01X15930Y14910D01*
G01X15943Y14922D01*
G01X15957Y14935D01*
G01X15970Y14948D01*
G01X15983Y14961D01*
G01X15996Y14974D01*
G01X16008Y14987D01*
G01X16021Y15001D01*
G01X16033Y15015D01*
G01X16045Y15029D01*
G01X16056Y15044D01*
G01X16067Y15058D01*
G01X16079Y15073D01*
G01X16089Y15088D01*
G01X16100Y15103D01*
G01X16110Y15118D01*
G01X16120Y15134D01*
G01X16130Y15149D01*
G01X16139Y15165D01*
G01X16148Y15181D01*
G01X16157Y15197D01*
G01X16166Y15214D01*
G01X16174Y15230D01*
G01X16182Y15247D01*
G01X16190Y15263D01*
G01X16197Y15280D01*
G01X16204Y15297D01*
G01X18403Y15297D01*
G01X18403Y15297D01*
G01X18518Y15109D01*
G01X18628Y14919D01*
G01X18735Y14726D01*
G01X15633Y14726D01*
G37*

%LPD*%
G36*
G01X2794Y11564D02*
G01X2794Y16636D01*
G01X6096Y16636D01*
G01X6086Y16636D01*
G01X6076Y16636D01*
G01X6066Y16636D01*
G01X6056Y16635D01*
G01X6046Y16634D01*
G01X6037Y16633D01*
G01X6027Y16632D01*
G01X6017Y16631D01*
G01X6007Y16629D01*
G01X5998Y16628D01*
G01X5988Y16626D01*
G01X5978Y16624D01*
G01X5969Y16622D01*
G01X5959Y16619D01*
G01X5949Y16617D01*
G01X5940Y16614D01*
G01X5930Y16612D01*
G01X5921Y16609D01*
G01X5912Y16605D01*
G01X5902Y16602D01*
G01X5893Y16599D01*
G01X5884Y16595D01*
G01X5875Y16591D01*
G01X5866Y16587D01*
G01X5857Y16583D01*
G01X5848Y16579D01*
G01X5839Y16575D01*
G01X5830Y16570D01*
G01X5822Y16565D01*
G01X5813Y16560D01*
G01X5805Y16555D01*
G01X5796Y16550D01*
G01X5788Y16545D01*
G01X5780Y16540D01*
G01X5772Y16534D01*
G01X5764Y16528D01*
G01X5756Y16522D01*
G01X5748Y16516D01*
G01X5740Y16510D01*
G01X5732Y16504D01*
G01X5725Y16497D01*
G01X5718Y16491D01*
G01X5710Y16484D01*
G01X5703Y16477D01*
G01X5696Y16471D01*
G01X5689Y16463D01*
G01X5682Y16456D01*
G01X5676Y16449D01*
G01X5669Y16442D01*
G01X5663Y16434D01*
G01X5657Y16426D01*
G01X5650Y16419D01*
G01X5644Y16411D01*
G01X5639Y16403D01*
G01X5633Y16395D01*
G01X5627Y16387D01*
G01X5622Y16379D01*
G01X5617Y16370D01*
G01X5611Y16362D01*
G01X5606Y16353D01*
G01X5602Y16345D01*
G01X5597Y16336D01*
G01X5592Y16327D01*
G01X5588Y16318D01*
G01X5584Y16310D01*
G01X5580Y16301D01*
G01X5576Y16291D01*
G01X5572Y16282D01*
G01X5568Y16273D01*
G01X5565Y16264D01*
G01X5562Y16255D01*
G01X5559Y16245D01*
G01X5556Y16236D01*
G01X5553Y16226D01*
G01X5550Y16217D01*
G01X5548Y16207D01*
G01X5546Y16198D01*
G01X5543Y16188D01*
G01X5541Y16178D01*
G01X5540Y16169D01*
G01X5538Y16159D01*
G01X5537Y16149D01*
G01X5535Y16139D01*
G01X5534Y16130D01*
G01X5533Y16120D01*
G01X5533Y16110D01*
G01X5532Y16100D01*
G01X5532Y16090D01*
G01X5531Y16080D01*
G01X5531Y16070D01*
G01X5531Y16061D01*
G01X5532Y16051D01*
G01X5532Y16041D01*
G01X5533Y16031D01*
G01X5534Y16021D01*
G01X5535Y16011D01*
G01X5536Y16002D01*
G01X5537Y15992D01*
G01X5539Y15982D01*
G01X5540Y15972D01*
G01X5542Y15963D01*
G01X5544Y15953D01*
G01X5546Y15943D01*
G01X5549Y15934D01*
G01X5551Y15924D01*
G01X5554Y15915D01*
G01X5557Y15905D01*
G01X5560Y15896D01*
G01X5563Y15887D01*
G01X5566Y15877D01*
G01X5569Y15868D01*
G01X5573Y15859D01*
G01X5577Y15850D01*
G01X5581Y15841D01*
G01X5585Y15832D01*
G01X5589Y15823D01*
G01X5594Y15814D01*
G01X5598Y15805D01*
G01X5603Y15797D01*
G01X5608Y15788D01*
G01X5613Y15780D01*
G01X5618Y15771D01*
G01X5623Y15763D01*
G01X5629Y15755D01*
G01X5635Y15747D01*
G01X5640Y15739D01*
G01X5646Y15731D01*
G01X5652Y15723D01*
G01X5658Y15715D01*
G01X5665Y15708D01*
G01X5671Y15700D01*
G01X5678Y15693D01*
G01X5684Y15685D01*
G01X5691Y15678D01*
G01X5691Y14461D01*
G01X2794Y11564D01*
G37*

%LPD*%
G36*
G01X2794Y16636D02*
G01X2794Y16771D01*
G01X2794Y16771D01*
G01X2931Y16916D01*
G01X3071Y17058D01*
G01X3214Y17197D01*
G01X3359Y17333D01*
G01X3507Y17466D01*
G01X3658Y17596D01*
G01X10922Y17596D01*
G01X10922Y16636D01*
G01X2794Y16636D01*
G37*

%LPD*%
G36*
G01X2794Y6103D02*
G01X2690Y6206D01*
G01X2690Y10316D01*
G01X2794Y10420D01*
G01X2794Y6103D01*
G37*

%LPD*%
G36*
G01X2794Y10133D02*
G01X2794Y10420D01*
G01X3716Y11342D01*
G01X5755Y11342D01*
G01X5745Y11342D01*
G01X5734Y11342D01*
G01X5724Y11342D01*
G01X5713Y11341D01*
G01X5703Y11340D01*
G01X5692Y11339D01*
G01X5682Y11338D01*
G01X5671Y11337D01*
G01X5661Y11335D01*
G01X5650Y11333D01*
G01X5640Y11331D01*
G01X5630Y11329D01*
G01X5619Y11327D01*
G01X5609Y11324D01*
G01X5599Y11322D01*
G01X5589Y11319D01*
G01X5579Y11316D01*
G01X5569Y11313D01*
G01X5559Y11309D01*
G01X5549Y11306D01*
G01X5539Y11302D01*
G01X5529Y11298D01*
G01X5519Y11294D01*
G01X5510Y11290D01*
G01X5500Y11286D01*
G01X5490Y11281D01*
G01X5481Y11277D01*
G01X5472Y11272D01*
G01X5462Y11267D01*
G01X5453Y11261D01*
G01X5444Y11256D01*
G01X5435Y11251D01*
G01X5426Y11245D01*
G01X5417Y11239D01*
G01X5409Y11233D01*
G01X5400Y11227D01*
G01X5392Y11221D01*
G01X5383Y11214D01*
G01X5375Y11208D01*
G01X5367Y11201D01*
G01X5359Y11194D01*
G01X5351Y11187D01*
G01X5343Y11180D01*
G01X5335Y11173D01*
G01X5328Y11165D01*
G01X5321Y11158D01*
G01X5313Y11150D01*
G01X5306Y11142D01*
G01X5299Y11135D01*
G01X5292Y11126D01*
G01X5286Y11118D01*
G01X5279Y11110D01*
G01X5273Y11102D01*
G01X5266Y11093D01*
G01X5260Y11085D01*
G01X5254Y11076D01*
G01X5248Y11067D01*
G01X5243Y11058D01*
G01X5237Y11049D01*
G01X5232Y11040D01*
G01X5227Y11031D01*
G01X5222Y11022D01*
G01X5217Y11012D01*
G01X5212Y11003D01*
G01X5208Y10993D01*
G01X5203Y10984D01*
G01X5199Y10974D01*
G01X5195Y10964D01*
G01X5191Y10955D01*
G01X5187Y10945D01*
G01X5184Y10935D01*
G01X5180Y10925D01*
G01X5177Y10915D01*
G01X5174Y10905D01*
G01X5171Y10894D01*
G01X5169Y10884D01*
G01X5166Y10874D01*
G01X5164Y10864D01*
G01X5162Y10853D01*
G01X5160Y10843D01*
G01X5158Y10832D01*
G01X5157Y10822D01*
G01X5155Y10812D01*
G01X5154Y10801D01*
G01X5153Y10791D01*
G01X5152Y10780D01*
G01X5152Y10770D01*
G01X5151Y10759D01*
G01X5151Y10748D01*
G01X5151Y10738D01*
G01X5151Y10727D01*
G01X5151Y10717D01*
G01X5152Y10706D01*
G01X5152Y10696D01*
G01X5153Y10685D01*
G01X5154Y10675D01*
G01X5155Y10664D01*
G01X5157Y10654D01*
G01X5158Y10643D01*
G01X5160Y10633D01*
G01X5162Y10623D01*
G01X5164Y10612D01*
G01X5166Y10602D01*
G01X5169Y10592D01*
G01X5171Y10581D01*
G01X5174Y10571D01*
G01X5177Y10561D01*
G01X5180Y10551D01*
G01X5184Y10541D01*
G01X5187Y10531D01*
G01X5191Y10521D01*
G01X5195Y10511D01*
G01X5199Y10502D01*
G01X5203Y10492D01*
G01X5208Y10482D01*
G01X5212Y10473D01*
G01X5217Y10463D01*
G01X5222Y10454D01*
G01X5227Y10445D01*
G01X5232Y10436D01*
G01X5237Y10427D01*
G01X5243Y10418D01*
G01X5248Y10409D01*
G01X5254Y10400D01*
G01X5260Y10391D01*
G01X5266Y10383D01*
G01X5273Y10374D01*
G01X5279Y10366D01*
G01X5286Y10357D01*
G01X5292Y10349D01*
G01X5299Y10341D01*
G01X5306Y10333D01*
G01X5313Y10326D01*
G01X5321Y10318D01*
G01X5328Y10310D01*
G01X5335Y10303D01*
G01X5343Y10296D01*
G01X5351Y10289D01*
G01X5359Y10282D01*
G01X5367Y10275D01*
G01X5375Y10268D01*
G01X5383Y10262D01*
G01X5392Y10255D01*
G01X5400Y10249D01*
G01X5409Y10243D01*
G01X5417Y10237D01*
G01X5426Y10231D01*
G01X5435Y10225D01*
G01X5444Y10220D01*
G01X5453Y10214D01*
G01X5462Y10209D01*
G01X5472Y10204D01*
G01X5481Y10199D01*
G01X5490Y10195D01*
G01X5500Y10190D01*
G01X5510Y10186D01*
G01X5519Y10181D01*
G01X5529Y10177D01*
G01X5539Y10174D01*
G01X5549Y10170D01*
G01X5559Y10166D01*
G01X5569Y10163D01*
G01X5579Y10160D01*
G01X5589Y10157D01*
G01X5599Y10154D01*
G01X5609Y10151D01*
G01X5619Y10149D01*
G01X5630Y10147D01*
G01X5640Y10145D01*
G01X5650Y10143D01*
G01X5661Y10141D01*
G01X5671Y10139D01*
G01X5682Y10138D01*
G01X5692Y10137D01*
G01X5703Y10136D01*
G01X5713Y10135D01*
G01X5724Y10134D01*
G01X5734Y10134D01*
G01X5745Y10134D01*
G01X5755Y10133D01*
G01X2794Y10133D01*
G37*

%LPD*%
G36*
G01X2794Y8863D02*
G01X2794Y10072D01*
G01X5755Y10072D01*
G01X5745Y10072D01*
G01X5734Y10072D01*
G01X5724Y10072D01*
G01X5713Y10071D01*
G01X5703Y10070D01*
G01X5692Y10069D01*
G01X5682Y10068D01*
G01X5671Y10067D01*
G01X5661Y10065D01*
G01X5650Y10063D01*
G01X5640Y10061D01*
G01X5630Y10059D01*
G01X5619Y10057D01*
G01X5609Y10054D01*
G01X5599Y10052D01*
G01X5589Y10049D01*
G01X5579Y10046D01*
G01X5569Y10043D01*
G01X5559Y10039D01*
G01X5549Y10036D01*
G01X5539Y10032D01*
G01X5529Y10028D01*
G01X5519Y10024D01*
G01X5510Y10020D01*
G01X5500Y10016D01*
G01X5490Y10011D01*
G01X5481Y10007D01*
G01X5472Y10002D01*
G01X5462Y9997D01*
G01X5453Y9991D01*
G01X5444Y9986D01*
G01X5435Y9981D01*
G01X5426Y9975D01*
G01X5417Y9969D01*
G01X5409Y9963D01*
G01X5400Y9957D01*
G01X5392Y9951D01*
G01X5383Y9944D01*
G01X5375Y9938D01*
G01X5367Y9931D01*
G01X5359Y9924D01*
G01X5351Y9917D01*
G01X5343Y9910D01*
G01X5335Y9903D01*
G01X5328Y9895D01*
G01X5321Y9888D01*
G01X5313Y9880D01*
G01X5306Y9872D01*
G01X5299Y9865D01*
G01X5292Y9856D01*
G01X5286Y9848D01*
G01X5279Y9840D01*
G01X5273Y9832D01*
G01X5266Y9823D01*
G01X5260Y9815D01*
G01X5254Y9806D01*
G01X5248Y9797D01*
G01X5243Y9788D01*
G01X5237Y9779D01*
G01X5232Y9770D01*
G01X5227Y9761D01*
G01X5222Y9752D01*
G01X5217Y9742D01*
G01X5212Y9733D01*
G01X5208Y9723D01*
G01X5203Y9714D01*
G01X5199Y9704D01*
G01X5195Y9694D01*
G01X5191Y9685D01*
G01X5187Y9675D01*
G01X5184Y9665D01*
G01X5180Y9655D01*
G01X5177Y9645D01*
G01X5174Y9635D01*
G01X5171Y9624D01*
G01X5169Y9614D01*
G01X5166Y9604D01*
G01X5164Y9594D01*
G01X5162Y9583D01*
G01X5160Y9573D01*
G01X5158Y9562D01*
G01X5157Y9552D01*
G01X5155Y9542D01*
G01X5154Y9531D01*
G01X5153Y9521D01*
G01X5152Y9510D01*
G01X5152Y9500D01*
G01X5151Y9489D01*
G01X5151Y9478D01*
G01X5151Y9468D01*
G01X5151Y9457D01*
G01X5151Y9447D01*
G01X5152Y9436D01*
G01X5152Y9426D01*
G01X5153Y9415D01*
G01X5154Y9405D01*
G01X5155Y9394D01*
G01X5157Y9384D01*
G01X5158Y9373D01*
G01X5160Y9363D01*
G01X5162Y9353D01*
G01X5164Y9342D01*
G01X5166Y9332D01*
G01X5169Y9322D01*
G01X5171Y9311D01*
G01X5174Y9301D01*
G01X5177Y9291D01*
G01X5180Y9281D01*
G01X5184Y9271D01*
G01X5187Y9261D01*
G01X5191Y9251D01*
G01X5195Y9241D01*
G01X5199Y9232D01*
G01X5203Y9222D01*
G01X5208Y9212D01*
G01X5212Y9203D01*
G01X5217Y9193D01*
G01X5222Y9184D01*
G01X5227Y9175D01*
G01X5232Y9166D01*
G01X5237Y9157D01*
G01X5243Y9148D01*
G01X5248Y9139D01*
G01X5254Y9130D01*
G01X5260Y9121D01*
G01X5266Y9113D01*
G01X5273Y9104D01*
G01X5279Y9096D01*
G01X5286Y9087D01*
G01X5292Y9079D01*
G01X5299Y9071D01*
G01X5306Y9063D01*
G01X5313Y9056D01*
G01X5321Y9048D01*
G01X5328Y9040D01*
G01X5335Y9033D01*
G01X5343Y9026D01*
G01X5351Y9019D01*
G01X5359Y9012D01*
G01X5367Y9005D01*
G01X5375Y8998D01*
G01X5383Y8992D01*
G01X5392Y8985D01*
G01X5400Y8979D01*
G01X5409Y8973D01*
G01X5417Y8967D01*
G01X5426Y8961D01*
G01X5435Y8955D01*
G01X5444Y8950D01*
G01X5453Y8944D01*
G01X5462Y8939D01*
G01X5472Y8934D01*
G01X5481Y8929D01*
G01X5490Y8925D01*
G01X5500Y8920D01*
G01X5510Y8916D01*
G01X5519Y8911D01*
G01X5529Y8907D01*
G01X5539Y8904D01*
G01X5549Y8900D01*
G01X5559Y8896D01*
G01X5569Y8893D01*
G01X5579Y8890D01*
G01X5589Y8887D01*
G01X5599Y8884D01*
G01X5609Y8881D01*
G01X5619Y8879D01*
G01X5630Y8877D01*
G01X5640Y8875D01*
G01X5650Y8873D01*
G01X5661Y8871D01*
G01X5671Y8869D01*
G01X5682Y8868D01*
G01X5692Y8867D01*
G01X5703Y8866D01*
G01X5713Y8865D01*
G01X5724Y8864D01*
G01X5734Y8864D01*
G01X5745Y8864D01*
G01X5755Y8863D01*
G01X2794Y8863D01*
G37*

%LPD*%
G36*
G01X9271Y10333D02*
G01X9278Y10333D01*
G01X9285Y10334D01*
G01X9292Y10334D01*
G01X9300Y10334D01*
G01X9307Y10335D01*
G01X9314Y10336D01*
G01X9321Y10337D01*
G01X9328Y10338D01*
G01X9335Y10339D01*
G01X9343Y10340D01*
G01X9350Y10341D01*
G01X9357Y10343D01*
G01X9364Y10344D01*
G01X9371Y10346D01*
G01X9378Y10348D01*
G01X9385Y10350D01*
G01X9392Y10352D01*
G01X9398Y10354D01*
G01X9405Y10356D01*
G01X9412Y10359D01*
G01X9419Y10362D01*
G01X9426Y10364D01*
G01X9432Y10367D01*
G01X9439Y10370D01*
G01X9445Y10373D01*
G01X9452Y10376D01*
G01X9458Y10379D01*
G01X9465Y10383D01*
G01X9471Y10386D01*
G01X9477Y10390D01*
G01X9483Y10394D01*
G01X9489Y10398D01*
G01X9495Y10402D01*
G01X9501Y10406D01*
G01X9507Y10410D01*
G01X9513Y10414D01*
G01X9519Y10418D01*
G01X9525Y10423D01*
G01X9530Y10428D01*
G01X9536Y10432D01*
G01X9541Y10437D01*
G01X9546Y10442D01*
G01X9552Y10447D01*
G01X9557Y10452D01*
G01X9684Y10579D01*
G01X10922Y10579D01*
G01X10922Y10333D01*
G01X9271Y10333D01*
G37*

%LPD*%
G36*
G01X9684Y10579D02*
G01X10319Y11214D01*
G01X10922Y11214D01*
G01X10922Y10579D01*
G01X9684Y10579D01*
G37*

%LPD*%
G36*
G01X2794Y7593D02*
G01X2794Y8802D01*
G01X5755Y8802D01*
G01X5745Y8802D01*
G01X5734Y8802D01*
G01X5724Y8802D01*
G01X5713Y8801D01*
G01X5703Y8800D01*
G01X5692Y8799D01*
G01X5682Y8798D01*
G01X5671Y8797D01*
G01X5661Y8795D01*
G01X5650Y8793D01*
G01X5640Y8791D01*
G01X5630Y8789D01*
G01X5619Y8787D01*
G01X5609Y8784D01*
G01X5599Y8782D01*
G01X5589Y8779D01*
G01X5579Y8776D01*
G01X5569Y8773D01*
G01X5559Y8769D01*
G01X5549Y8766D01*
G01X5539Y8762D01*
G01X5529Y8758D01*
G01X5519Y8754D01*
G01X5510Y8750D01*
G01X5500Y8746D01*
G01X5490Y8741D01*
G01X5481Y8737D01*
G01X5472Y8732D01*
G01X5462Y8727D01*
G01X5453Y8721D01*
G01X5444Y8716D01*
G01X5435Y8711D01*
G01X5426Y8705D01*
G01X5417Y8699D01*
G01X5409Y8693D01*
G01X5400Y8687D01*
G01X5392Y8681D01*
G01X5383Y8674D01*
G01X5375Y8668D01*
G01X5367Y8661D01*
G01X5359Y8654D01*
G01X5351Y8647D01*
G01X5343Y8640D01*
G01X5335Y8633D01*
G01X5328Y8625D01*
G01X5321Y8618D01*
G01X5313Y8610D01*
G01X5306Y8602D01*
G01X5299Y8595D01*
G01X5292Y8586D01*
G01X5286Y8578D01*
G01X5279Y8570D01*
G01X5273Y8562D01*
G01X5266Y8553D01*
G01X5260Y8545D01*
G01X5254Y8536D01*
G01X5248Y8527D01*
G01X5243Y8518D01*
G01X5237Y8509D01*
G01X5232Y8500D01*
G01X5227Y8491D01*
G01X5222Y8482D01*
G01X5217Y8472D01*
G01X5212Y8463D01*
G01X5208Y8453D01*
G01X5203Y8444D01*
G01X5199Y8434D01*
G01X5195Y8424D01*
G01X5191Y8415D01*
G01X5187Y8405D01*
G01X5184Y8395D01*
G01X5180Y8385D01*
G01X5177Y8375D01*
G01X5174Y8365D01*
G01X5171Y8354D01*
G01X5169Y8344D01*
G01X5166Y8334D01*
G01X5164Y8324D01*
G01X5162Y8313D01*
G01X5160Y8303D01*
G01X5158Y8292D01*
G01X5157Y8282D01*
G01X5155Y8272D01*
G01X5154Y8261D01*
G01X5153Y8251D01*
G01X5152Y8240D01*
G01X5152Y8230D01*
G01X5151Y8219D01*
G01X5151Y8208D01*
G01X5151Y8198D01*
G01X5151Y8187D01*
G01X5151Y8177D01*
G01X5152Y8166D01*
G01X5152Y8156D01*
G01X5153Y8145D01*
G01X5154Y8135D01*
G01X5155Y8124D01*
G01X5157Y8114D01*
G01X5158Y8103D01*
G01X5160Y8093D01*
G01X5162Y8083D01*
G01X5164Y8072D01*
G01X5166Y8062D01*
G01X5169Y8052D01*
G01X5171Y8041D01*
G01X5174Y8031D01*
G01X5177Y8021D01*
G01X5180Y8011D01*
G01X5184Y8001D01*
G01X5187Y7991D01*
G01X5191Y7981D01*
G01X5195Y7971D01*
G01X5199Y7962D01*
G01X5203Y7952D01*
G01X5208Y7942D01*
G01X5212Y7933D01*
G01X5217Y7923D01*
G01X5222Y7914D01*
G01X5227Y7905D01*
G01X5232Y7896D01*
G01X5237Y7887D01*
G01X5243Y7878D01*
G01X5248Y7869D01*
G01X5254Y7860D01*
G01X5260Y7851D01*
G01X5266Y7843D01*
G01X5273Y7834D01*
G01X5279Y7826D01*
G01X5286Y7817D01*
G01X5292Y7809D01*
G01X5299Y7801D01*
G01X5306Y7793D01*
G01X5313Y7786D01*
G01X5321Y7778D01*
G01X5328Y7770D01*
G01X5335Y7763D01*
G01X5343Y7756D01*
G01X5351Y7749D01*
G01X5359Y7742D01*
G01X5367Y7735D01*
G01X5375Y7728D01*
G01X5383Y7722D01*
G01X5392Y7715D01*
G01X5400Y7709D01*
G01X5409Y7703D01*
G01X5417Y7697D01*
G01X5426Y7691D01*
G01X5435Y7685D01*
G01X5444Y7680D01*
G01X5453Y7674D01*
G01X5462Y7669D01*
G01X5472Y7664D01*
G01X5481Y7659D01*
G01X5490Y7655D01*
G01X5500Y7650D01*
G01X5510Y7646D01*
G01X5519Y7641D01*
G01X5529Y7637D01*
G01X5539Y7634D01*
G01X5549Y7630D01*
G01X5559Y7626D01*
G01X5569Y7623D01*
G01X5579Y7620D01*
G01X5589Y7617D01*
G01X5599Y7614D01*
G01X5609Y7611D01*
G01X5619Y7609D01*
G01X5630Y7607D01*
G01X5640Y7605D01*
G01X5650Y7603D01*
G01X5661Y7601D01*
G01X5671Y7599D01*
G01X5682Y7598D01*
G01X5692Y7597D01*
G01X5703Y7596D01*
G01X5713Y7595D01*
G01X5724Y7594D01*
G01X5734Y7594D01*
G01X5745Y7594D01*
G01X5755Y7593D01*
G01X2794Y7593D01*
G37*

%LPD*%
G36*
G01X2794Y7481D02*
G01X2794Y7593D01*
G01X10922Y7593D01*
G01X10922Y7481D01*
G01X2794Y7481D01*
G37*

%LPD*%
G36*
G01X9193Y5136D02*
G01X9193Y5596D01*
G01X9798Y6644D01*
G01X9798Y6644D01*
G01X9800Y6648D01*
G01X9802Y6652D01*
G01X9804Y6656D01*
G01X9806Y6660D01*
G01X9808Y6664D01*
G01X9810Y6668D01*
G01X9812Y6672D01*
G01X9814Y6676D01*
G01X9815Y6681D01*
G01X9817Y6685D01*
G01X9818Y6689D01*
G01X9820Y6693D01*
G01X9821Y6698D01*
G01X9822Y6702D01*
G01X9824Y6706D01*
G01X9825Y6711D01*
G01X9826Y6715D01*
G01X9827Y6719D01*
G01X9827Y6724D01*
G01X9828Y6728D01*
G01X9829Y6733D01*
G01X9830Y6737D01*
G01X9830Y6741D01*
G01X9831Y6746D01*
G01X9831Y6750D01*
G01X9831Y6755D01*
G01X9832Y6759D01*
G01X9832Y6764D01*
G01X9832Y6768D01*
G01X9832Y6773D01*
G01X9832Y6777D01*
G01X9832Y6782D01*
G01X9832Y6786D01*
G01X9831Y6791D01*
G01X9831Y6795D01*
G01X9830Y6800D01*
G01X9830Y6804D01*
G01X9829Y6809D01*
G01X9829Y6813D01*
G01X9828Y6817D01*
G01X9827Y6822D01*
G01X9826Y6826D01*
G01X9825Y6831D01*
G01X9824Y6835D01*
G01X9823Y6839D01*
G01X9821Y6844D01*
G01X9820Y6848D01*
G01X9819Y6852D01*
G01X9817Y6857D01*
G01X9816Y6861D01*
G01X9814Y6865D01*
G01X9812Y6869D01*
G01X9811Y6873D01*
G01X9809Y6877D01*
G01X9807Y6881D01*
G01X9805Y6885D01*
G01X9803Y6889D01*
G01X9801Y6893D01*
G01X9799Y6897D01*
G01X9796Y6901D01*
G01X9794Y6905D01*
G01X9792Y6909D01*
G01X9789Y6913D01*
G01X9787Y6916D01*
G01X9784Y6920D01*
G01X9781Y6924D01*
G01X9779Y6927D01*
G01X9776Y6931D01*
G01X9773Y6934D01*
G01X9770Y6938D01*
G01X9767Y6941D01*
G01X9764Y6944D01*
G01X9761Y6948D01*
G01X9758Y6951D01*
G01X9755Y6954D01*
G01X9752Y6957D01*
G01X9748Y6960D01*
G01X9745Y6963D01*
G01X9741Y6966D01*
G01X9738Y6969D01*
G01X9734Y6972D01*
G01X9731Y6974D01*
G01X9727Y6977D01*
G01X9724Y6980D01*
G01X9720Y6982D01*
G01X9716Y6985D01*
G01X9712Y6987D01*
G01X9709Y6989D01*
G01X9705Y6992D01*
G01X9705Y6992D01*
G01X8917Y7446D01*
G01X8913Y7449D01*
G01X8909Y7451D01*
G01X8905Y7453D01*
G01X8901Y7455D01*
G01X8897Y7457D01*
G01X8893Y7459D01*
G01X8888Y7461D01*
G01X8884Y7462D01*
G01X8880Y7464D01*
G01X8876Y7466D01*
G01X8871Y7467D01*
G01X8867Y7469D01*
G01X8863Y7470D01*
G01X8858Y7471D01*
G01X8854Y7472D01*
G01X8849Y7474D01*
G01X8845Y7475D01*
G01X8840Y7476D01*
G01X8836Y7476D01*
G01X8831Y7477D01*
G01X8827Y7478D01*
G01X8822Y7478D01*
G01X8818Y7479D01*
G01X8813Y7479D01*
G01X8808Y7480D01*
G01X8804Y7480D01*
G01X8799Y7480D01*
G01X8795Y7480D01*
G01X8790Y7481D01*
G01X10922Y7481D01*
G01X10922Y6865D01*
G01X9193Y5136D01*
G37*

%LPD*%
G36*
G01X6382Y14008D02*
G01X6382Y14008D01*
G01X6387Y14013D01*
G01X6392Y14018D01*
G01X6397Y14024D01*
G01X6401Y14029D01*
G01X6406Y14035D01*
G01X6411Y14040D01*
G01X6415Y14046D01*
G01X6420Y14052D01*
G01X6424Y14057D01*
G01X6428Y14063D01*
G01X6432Y14069D01*
G01X6436Y14075D01*
G01X6440Y14081D01*
G01X6444Y14088D01*
G01X6447Y14094D01*
G01X6451Y14100D01*
G01X6454Y14106D01*
G01X6457Y14113D01*
G01X6461Y14119D01*
G01X6464Y14126D01*
G01X6467Y14132D01*
G01X6469Y14139D01*
G01X6472Y14146D01*
G01X6475Y14153D01*
G01X6477Y14159D01*
G01X6480Y14166D01*
G01X6482Y14173D01*
G01X6484Y14180D01*
G01X6486Y14187D01*
G01X6488Y14194D01*
G01X6489Y14201D01*
G01X6491Y14208D01*
G01X6492Y14215D01*
G01X6494Y14222D01*
G01X6495Y14229D01*
G01X6496Y14236D01*
G01X6497Y14244D01*
G01X6498Y14251D01*
G01X6499Y14258D01*
G01X6499Y14265D01*
G01X6500Y14272D01*
G01X6500Y14279D01*
G01X6500Y14287D01*
G01X6500Y14294D01*
G01X6500Y15678D01*
G01X6500Y15678D01*
G01X6507Y15685D01*
G01X6514Y15693D01*
G01X6520Y15700D01*
G01X6527Y15708D01*
G01X6533Y15715D01*
G01X6539Y15723D01*
G01X6545Y15731D01*
G01X6551Y15739D01*
G01X6557Y15747D01*
G01X6562Y15755D01*
G01X6568Y15763D01*
G01X6573Y15771D01*
G01X6578Y15780D01*
G01X6584Y15788D01*
G01X6588Y15797D01*
G01X6593Y15805D01*
G01X6598Y15814D01*
G01X6602Y15823D01*
G01X6606Y15832D01*
G01X6611Y15841D01*
G01X6614Y15850D01*
G01X6618Y15859D01*
G01X6622Y15868D01*
G01X6625Y15877D01*
G01X6629Y15886D01*
G01X6632Y15896D01*
G01X6635Y15905D01*
G01X6638Y15915D01*
G01X6640Y15924D01*
G01X6643Y15934D01*
G01X6645Y15943D01*
G01X6647Y15953D01*
G01X6649Y15962D01*
G01X6651Y15972D01*
G01X6653Y15982D01*
G01X6654Y15992D01*
G01X6656Y16001D01*
G01X10033Y16001D01*
G01X10023Y16001D01*
G01X10013Y16001D01*
G01X10003Y16001D01*
G01X9993Y16000D01*
G01X9983Y15999D01*
G01X9974Y15998D01*
G01X9964Y15997D01*
G01X9954Y15996D01*
G01X9944Y15994D01*
G01X9935Y15993D01*
G01X9925Y15991D01*
G01X9915Y15989D01*
G01X9906Y15987D01*
G01X9896Y15984D01*
G01X9886Y15982D01*
G01X9877Y15979D01*
G01X9867Y15977D01*
G01X9858Y15974D01*
G01X9849Y15970D01*
G01X9839Y15967D01*
G01X9830Y15964D01*
G01X9821Y15960D01*
G01X9812Y15956D01*
G01X9803Y15952D01*
G01X9794Y15948D01*
G01X9785Y15944D01*
G01X9776Y15940D01*
G01X9767Y15935D01*
G01X9759Y15930D01*
G01X9750Y15925D01*
G01X9742Y15920D01*
G01X9733Y15915D01*
G01X9725Y15910D01*
G01X9717Y15905D01*
G01X9709Y15899D01*
G01X9701Y15893D01*
G01X9693Y15887D01*
G01X9685Y15881D01*
G01X9677Y15875D01*
G01X9669Y15869D01*
G01X9662Y15862D01*
G01X9655Y15856D01*
G01X9647Y15849D01*
G01X9640Y15842D01*
G01X9633Y15836D01*
G01X9626Y15828D01*
G01X9619Y15821D01*
G01X9613Y15814D01*
G01X9606Y15807D01*
G01X9600Y15799D01*
G01X9594Y15791D01*
G01X9587Y15784D01*
G01X9581Y15776D01*
G01X9576Y15768D01*
G01X9570Y15760D01*
G01X9564Y15752D01*
G01X9559Y15744D01*
G01X9554Y15735D01*
G01X9548Y15727D01*
G01X9543Y15718D01*
G01X9539Y15710D01*
G01X9534Y15701D01*
G01X9529Y15692D01*
G01X9525Y15683D01*
G01X9521Y15675D01*
G01X9517Y15666D01*
G01X9513Y15656D01*
G01X9509Y15647D01*
G01X9505Y15638D01*
G01X9502Y15629D01*
G01X9499Y15620D01*
G01X9496Y15610D01*
G01X9493Y15601D01*
G01X9490Y15591D01*
G01X9487Y15582D01*
G01X9485Y15572D01*
G01X9483Y15563D01*
G01X9480Y15553D01*
G01X9478Y15543D01*
G01X9477Y15534D01*
G01X9475Y15524D01*
G01X9474Y15514D01*
G01X9472Y15504D01*
G01X9471Y15495D01*
G01X9470Y15485D01*
G01X9470Y15475D01*
G01X9469Y15465D01*
G01X9469Y15455D01*
G01X9468Y15445D01*
G01X9468Y15435D01*
G01X9468Y15426D01*
G01X9469Y15416D01*
G01X9469Y15406D01*
G01X9470Y15396D01*
G01X9471Y15386D01*
G01X9472Y15376D01*
G01X9473Y15367D01*
G01X9474Y15357D01*
G01X9476Y15347D01*
G01X9477Y15337D01*
G01X9479Y15328D01*
G01X9481Y15318D01*
G01X9483Y15308D01*
G01X9486Y15299D01*
G01X9488Y15289D01*
G01X9491Y15280D01*
G01X9494Y15270D01*
G01X9497Y15261D01*
G01X9500Y15252D01*
G01X9503Y15242D01*
G01X9506Y15233D01*
G01X9510Y15224D01*
G01X9514Y15215D01*
G01X9518Y15206D01*
G01X9522Y15197D01*
G01X9526Y15188D01*
G01X9531Y15179D01*
G01X9535Y15170D01*
G01X9540Y15162D01*
G01X9545Y15153D01*
G01X9550Y15145D01*
G01X9555Y15136D01*
G01X9560Y15128D01*
G01X9566Y15120D01*
G01X9572Y15112D01*
G01X9577Y15104D01*
G01X9583Y15096D01*
G01X9589Y15088D01*
G01X9595Y15080D01*
G01X9602Y15073D01*
G01X9608Y15065D01*
G01X9615Y15058D01*
G01X9621Y15050D01*
G01X9628Y15043D01*
G01X9628Y14008D01*
G01X6382Y14008D01*
G37*

%LPD*%
G36*
G01X6656Y16001D02*
G01X6656Y16001D01*
G01X6657Y16011D01*
G01X6658Y16021D01*
G01X6659Y16031D01*
G01X6659Y16041D01*
G01X6660Y16050D01*
G01X6660Y16060D01*
G01X6660Y16070D01*
G01X6660Y16080D01*
G01X6660Y16090D01*
G01X6659Y16100D01*
G01X6659Y16110D01*
G01X6658Y16120D01*
G01X6657Y16129D01*
G01X6656Y16139D01*
G01X6655Y16149D01*
G01X6653Y16159D01*
G01X6652Y16168D01*
G01X6650Y16178D01*
G01X6648Y16188D01*
G01X6646Y16197D01*
G01X6644Y16207D01*
G01X6641Y16217D01*
G01X6639Y16226D01*
G01X6636Y16236D01*
G01X6633Y16245D01*
G01X6630Y16254D01*
G01X6627Y16264D01*
G01X6623Y16273D01*
G01X6620Y16282D01*
G01X6616Y16291D01*
G01X6612Y16300D01*
G01X6608Y16309D01*
G01X6604Y16318D01*
G01X6599Y16327D01*
G01X6595Y16336D01*
G01X6590Y16345D01*
G01X6585Y16353D01*
G01X6580Y16362D01*
G01X6575Y16370D01*
G01X6570Y16378D01*
G01X6564Y16387D01*
G01X6559Y16395D01*
G01X6553Y16403D01*
G01X6547Y16411D01*
G01X6541Y16419D01*
G01X6535Y16426D01*
G01X6529Y16434D01*
G01X6522Y16441D01*
G01X6516Y16449D01*
G01X6509Y16456D01*
G01X6502Y16463D01*
G01X6495Y16470D01*
G01X6488Y16477D01*
G01X6481Y16484D01*
G01X6474Y16491D01*
G01X6467Y16497D01*
G01X6459Y16504D01*
G01X6452Y16510D01*
G01X6444Y16516D01*
G01X6436Y16522D01*
G01X6428Y16528D01*
G01X6420Y16534D01*
G01X6412Y16539D01*
G01X6404Y16545D01*
G01X6395Y16550D01*
G01X6387Y16555D01*
G01X6378Y16560D01*
G01X6370Y16565D01*
G01X6361Y16570D01*
G01X6352Y16575D01*
G01X6344Y16579D01*
G01X6335Y16583D01*
G01X6326Y16587D01*
G01X6317Y16591D01*
G01X6308Y16595D01*
G01X6298Y16599D01*
G01X6289Y16602D01*
G01X6280Y16605D01*
G01X6270Y16609D01*
G01X6261Y16612D01*
G01X6252Y16614D01*
G01X6242Y16617D01*
G01X6233Y16619D01*
G01X6223Y16622D01*
G01X6213Y16624D01*
G01X6204Y16626D01*
G01X6194Y16628D01*
G01X6184Y16629D01*
G01X6174Y16631D01*
G01X6165Y16632D01*
G01X6155Y16633D01*
G01X6145Y16634D01*
G01X6135Y16635D01*
G01X6125Y16636D01*
G01X6115Y16636D01*
G01X6106Y16636D01*
G01X6096Y16636D01*
G01X10922Y16636D01*
G01X10922Y16001D01*
G01X6656Y16001D01*
G37*

%LPD*%
G36*
G01X10922Y15297D02*
G01X10922Y16085D01*
G01X17854Y16085D01*
G01X17854Y16085D01*
G01X17970Y15931D01*
G01X18082Y15776D01*
G01X18192Y15619D01*
G01X18299Y15459D01*
G01X18403Y15297D01*
G01X10922Y15297D01*
G37*

%LPD*%
G36*
G01X3658Y17596D02*
G01X3792Y17706D01*
G01X3927Y17815D01*
G01X4064Y17921D01*
G01X4203Y18024D01*
G01X4344Y18125D01*
G01X4486Y18223D01*
G01X4630Y18319D01*
G01X4776Y18413D01*
G01X4924Y18504D01*
G01X5073Y18592D01*
G01X5223Y18678D01*
G01X5375Y18760D01*
G01X5529Y18841D01*
G01X5684Y18918D01*
G01X5840Y18993D01*
G01X5997Y19065D01*
G01X6156Y19135D01*
G01X6316Y19201D01*
G01X6477Y19265D01*
G01X6639Y19326D01*
G01X6802Y19384D01*
G01X6967Y19439D01*
G01X7132Y19491D01*
G01X7298Y19541D01*
G01X7464Y19587D01*
G01X7632Y19631D01*
G01X7800Y19672D01*
G01X7970Y19709D01*
G01X8139Y19744D01*
G01X8310Y19776D01*
G01X8480Y19804D01*
G01X8652Y19830D01*
G01X8823Y19853D01*
G01X8995Y19872D01*
G01X9168Y19889D01*
G01X9340Y19903D01*
G01X9513Y19913D01*
G01X9686Y19921D01*
G01X9860Y19925D01*
G01X10033Y19927D01*
G01X10206Y19925D01*
G01X10379Y19921D01*
G01X10552Y19913D01*
G01X10725Y19903D01*
G01X10898Y19889D01*
G01X11070Y19872D01*
G01X11242Y19853D01*
G01X11414Y19830D01*
G01X11585Y19804D01*
G01X11756Y19776D01*
G01X11926Y19744D01*
G01X12096Y19709D01*
G01X12265Y19672D01*
G01X12433Y19631D01*
G01X12601Y19587D01*
G01X12768Y19541D01*
G01X12934Y19491D01*
G01X13099Y19439D01*
G01X13263Y19384D01*
G01X13426Y19326D01*
G01X13588Y19265D01*
G01X13749Y19201D01*
G01X13909Y19135D01*
G01X14068Y19065D01*
G01X14226Y18993D01*
G01X14382Y18918D01*
G01X14537Y18841D01*
G01X14690Y18760D01*
G01X14842Y18678D01*
G01X14993Y18592D01*
G01X15142Y18504D01*
G01X15289Y18413D01*
G01X15435Y18319D01*
G01X15579Y18223D01*
G01X15722Y18125D01*
G01X15862Y18024D01*
G01X16001Y17921D01*
G01X16138Y17815D01*
G01X16274Y17706D01*
G01X16407Y17596D01*
G01X3658Y17596D01*
G37*

%LPD*%
G36*
G01X10922Y16085D02*
G01X10922Y16656D01*
G01X14846Y16656D01*
G01X14846Y16656D01*
G01X14829Y16648D01*
G01X14812Y16641D01*
G01X14795Y16633D01*
G01X14779Y16625D01*
G01X14762Y16617D01*
G01X14746Y16608D01*
G01X14730Y16600D01*
G01X14714Y16590D01*
G01X14698Y16581D01*
G01X14682Y16571D01*
G01X14667Y16561D01*
G01X14652Y16551D01*
G01X14637Y16540D01*
G01X14622Y16530D01*
G01X14607Y16519D01*
G01X14592Y16507D01*
G01X14578Y16496D01*
G01X14564Y16484D01*
G01X14550Y16472D01*
G01X14536Y16460D01*
G01X14523Y16447D01*
G01X14510Y16434D01*
G01X14497Y16421D01*
G01X14484Y16408D01*
G01X14471Y16394D01*
G01X14459Y16381D01*
G01X14447Y16367D01*
G01X14435Y16353D01*
G01X14423Y16338D01*
G01X14412Y16324D01*
G01X14401Y16309D01*
G01X14390Y16294D01*
G01X14380Y16279D01*
G01X14369Y16264D01*
G01X14359Y16248D01*
G01X14350Y16233D01*
G01X14340Y16217D01*
G01X14331Y16201D01*
G01X14322Y16185D01*
G01X14314Y16168D01*
G01X14305Y16152D01*
G01X14297Y16135D01*
G01X14290Y16118D01*
G01X14282Y16102D01*
G01X14275Y16085D01*
G01X10922Y16085D01*
G37*

%LPD*%
G36*
G01X10922Y16656D02*
G01X10922Y17596D01*
G01X16407Y17596D01*
G01X16407Y17596D01*
G01X16553Y17470D01*
G01X16697Y17341D01*
G01X16839Y17209D01*
G01X16977Y17075D01*
G01X17113Y16938D01*
G01X17247Y16798D01*
G01X17377Y16656D01*
G01X10922Y16656D01*
G37*

%LPD*%
G36*
G01X2834Y6062D02*
G01X2794Y6103D01*
G01X2794Y7481D01*
G01X8790Y7481D01*
G01X8786Y7480D01*
G01X8781Y7480D01*
G01X8777Y7480D01*
G01X8772Y7480D01*
G01X8768Y7480D01*
G01X8763Y7479D01*
G01X8759Y7479D01*
G01X8755Y7478D01*
G01X8750Y7477D01*
G01X8746Y7477D01*
G01X8741Y7476D01*
G01X8737Y7475D01*
G01X8733Y7474D01*
G01X8728Y7473D01*
G01X8724Y7472D01*
G01X8720Y7471D01*
G01X8716Y7469D01*
G01X8711Y7468D01*
G01X8707Y7467D01*
G01X8703Y7465D01*
G01X8699Y7464D01*
G01X8695Y7462D01*
G01X8691Y7460D01*
G01X8686Y7458D01*
G01X8682Y7457D01*
G01X8678Y7455D01*
G01X8674Y7453D01*
G01X8671Y7451D01*
G01X8667Y7449D01*
G01X8663Y7446D01*
G01X8659Y7444D01*
G01X8655Y7442D01*
G01X8651Y7439D01*
G01X8648Y7437D01*
G01X8644Y7434D01*
G01X8640Y7432D01*
G01X8637Y7429D01*
G01X8633Y7427D01*
G01X8630Y7424D01*
G01X8626Y7421D01*
G01X8623Y7418D01*
G01X8620Y7415D01*
G01X8616Y7412D01*
G01X8613Y7409D01*
G01X8610Y7406D01*
G01X8607Y7403D01*
G01X8604Y7400D01*
G01X8601Y7396D01*
G01X8598Y7393D01*
G01X8595Y7390D01*
G01X8592Y7386D01*
G01X8589Y7383D01*
G01X8587Y7379D01*
G01X8584Y7376D01*
G01X8582Y7372D01*
G01X8579Y7368D01*
G01X8577Y7365D01*
G01X8574Y7361D01*
G01X8572Y7357D01*
G01X8570Y7353D01*
G01X7960Y6297D01*
G01X7958Y6293D01*
G01X7956Y6290D01*
G01X7954Y6286D01*
G01X7952Y6282D01*
G01X7950Y6278D01*
G01X7948Y6274D01*
G01X7946Y6270D01*
G01X7944Y6265D01*
G01X7943Y6261D01*
G01X7941Y6257D01*
G01X7940Y6253D01*
G01X7938Y6249D01*
G01X7937Y6244D01*
G01X7936Y6240D01*
G01X7935Y6236D01*
G01X7933Y6232D01*
G01X7932Y6227D01*
G01X7931Y6223D01*
G01X7931Y6219D01*
G01X7930Y6214D01*
G01X7929Y6210D01*
G01X7928Y6205D01*
G01X7928Y6201D01*
G01X7927Y6197D01*
G01X7927Y6192D01*
G01X7927Y6188D01*
G01X7926Y6183D01*
G01X7926Y6179D01*
G01X7926Y6174D01*
G01X7926Y6170D01*
G01X7926Y6165D01*
G01X7926Y6161D01*
G01X7926Y6157D01*
G01X7927Y6152D01*
G01X7927Y6148D01*
G01X7927Y6143D01*
G01X7928Y6139D01*
G01X7928Y6134D01*
G01X7929Y6130D01*
G01X7930Y6126D01*
G01X7931Y6121D01*
G01X7932Y6117D01*
G01X7932Y6113D01*
G01X7934Y6108D01*
G01X7935Y6104D01*
G01X7936Y6100D01*
G01X7899Y6062D01*
G01X2834Y6062D01*
G37*

%LPD*%
G36*
G01X3716Y11342D02*
G01X3777Y11403D01*
G01X9364Y11403D01*
G01X9303Y11342D01*
G01X3716Y11342D01*
G37*

%LPD*%
G36*
G01X4986Y12612D02*
G01X6382Y14008D01*
G01X9628Y14008D01*
G01X9628Y12612D01*
G01X4986Y12612D01*
G37*

%LPD*%
G36*
G01X14846Y16085D02*
G01X14846Y16656D01*
G01X15633Y16656D01*
G01X15633Y16085D01*
G01X14846Y16085D01*
G37*

%LPD*%
G36*
G01X16204Y16085D02*
G01X16204Y16085D01*
G01X16197Y16102D01*
G01X16190Y16118D01*
G01X16182Y16135D01*
G01X16174Y16152D01*
G01X16166Y16168D01*
G01X16157Y16185D01*
G01X16148Y16201D01*
G01X16139Y16217D01*
G01X16130Y16233D01*
G01X16120Y16248D01*
G01X16110Y16264D01*
G01X16100Y16279D01*
G01X16089Y16294D01*
G01X16079Y16309D01*
G01X16067Y16324D01*
G01X16056Y16338D01*
G01X16045Y16353D01*
G01X16033Y16367D01*
G01X16021Y16381D01*
G01X16008Y16394D01*
G01X15996Y16408D01*
G01X15983Y16421D01*
G01X15970Y16434D01*
G01X15957Y16447D01*
G01X15943Y16460D01*
G01X15930Y16472D01*
G01X15916Y16484D01*
G01X15901Y16496D01*
G01X15887Y16507D01*
G01X15873Y16519D01*
G01X15858Y16530D01*
G01X15843Y16540D01*
G01X15828Y16551D01*
G01X15812Y16561D01*
G01X15797Y16571D01*
G01X15781Y16581D01*
G01X15766Y16590D01*
G01X15750Y16600D01*
G01X15733Y16608D01*
G01X15717Y16617D01*
G01X15701Y16625D01*
G01X15684Y16633D01*
G01X15667Y16641D01*
G01X15650Y16648D01*
G01X15633Y16656D01*
G01X17377Y16656D01*
G01X17501Y16516D01*
G01X17621Y16375D01*
G01X17739Y16231D01*
G01X17854Y16085D01*
G01X16204Y16085D01*
G37*

%LPD*%
G36*
G01X3777Y11403D02*
G01X4207Y11833D01*
G01X5177Y11833D01*
G01X5180Y11823D01*
G01X5183Y11813D01*
G01X5187Y11803D01*
G01X5190Y11793D01*
G01X5194Y11783D01*
G01X5198Y11773D01*
G01X5202Y11764D01*
G01X5207Y11754D01*
G01X5211Y11744D01*
G01X5216Y11735D01*
G01X5221Y11725D01*
G01X5226Y11716D01*
G01X5231Y11707D01*
G01X5236Y11698D01*
G01X5242Y11689D01*
G01X5248Y11680D01*
G01X5253Y11671D01*
G01X5259Y11662D01*
G01X5266Y11654D01*
G01X5272Y11645D01*
G01X5278Y11637D01*
G01X5285Y11628D01*
G01X5292Y11620D01*
G01X5298Y11612D01*
G01X5305Y11604D01*
G01X5312Y11597D01*
G01X5320Y11589D01*
G01X5327Y11581D01*
G01X5335Y11574D01*
G01X5342Y11567D01*
G01X5350Y11559D01*
G01X5358Y11552D01*
G01X5366Y11545D01*
G01X5374Y11539D01*
G01X5382Y11532D01*
G01X5391Y11526D01*
G01X5399Y11519D01*
G01X5408Y11513D01*
G01X5417Y11507D01*
G01X5425Y11501D01*
G01X5434Y11496D01*
G01X5443Y11490D01*
G01X5452Y11485D01*
G01X5462Y11480D01*
G01X5471Y11475D01*
G01X5480Y11470D01*
G01X5490Y11465D01*
G01X5499Y11460D01*
G01X5509Y11456D01*
G01X5519Y11452D01*
G01X5528Y11448D01*
G01X5538Y11444D01*
G01X5548Y11440D01*
G01X5558Y11437D01*
G01X5568Y11433D01*
G01X5578Y11430D01*
G01X5588Y11427D01*
G01X5599Y11424D01*
G01X5609Y11421D01*
G01X5619Y11419D01*
G01X5629Y11417D01*
G01X5640Y11415D01*
G01X5650Y11413D01*
G01X5661Y11411D01*
G01X5671Y11409D01*
G01X5682Y11408D01*
G01X5692Y11407D01*
G01X5703Y11406D01*
G01X5713Y11405D01*
G01X5724Y11404D01*
G01X5734Y11404D01*
G01X5745Y11404D01*
G01X5755Y11403D01*
G01X3777Y11403D01*
G37*

%LPD*%
G36*
G01X5964Y11403D02*
G01X5964Y11833D01*
G01X7047Y11833D01*
G01X7047Y11403D01*
G01X5964Y11403D01*
G37*

%LPD*%
G36*
G01X7698Y11151D02*
G01X7691Y11159D01*
G01X7683Y11166D01*
G01X7675Y11174D01*
G01X7667Y11181D01*
G01X7659Y11189D01*
G01X7651Y11196D01*
G01X7643Y11203D01*
G01X7635Y11209D01*
G01X7626Y11216D01*
G01X7618Y11223D01*
G01X7609Y11229D01*
G01X7600Y11235D01*
G01X7591Y11241D01*
G01X7582Y11247D01*
G01X7573Y11253D01*
G01X7564Y11258D01*
G01X7555Y11264D01*
G01X7545Y11269D01*
G01X7536Y11274D01*
G01X7526Y11279D01*
G01X7517Y11284D01*
G01X7507Y11288D01*
G01X7497Y11293D01*
G01X7487Y11297D01*
G01X7477Y11301D01*
G01X7467Y11305D01*
G01X7457Y11308D01*
G01X7447Y11312D01*
G01X7437Y11315D01*
G01X7426Y11318D01*
G01X7416Y11321D01*
G01X7406Y11324D01*
G01X7395Y11326D01*
G01X7385Y11329D01*
G01X7374Y11331D01*
G01X7364Y11333D01*
G01X7353Y11335D01*
G01X7342Y11336D01*
G01X7332Y11338D01*
G01X7321Y11339D01*
G01X7310Y11340D01*
G01X7300Y11341D01*
G01X7289Y11342D01*
G01X7278Y11342D01*
G01X7267Y11342D01*
G01X7257Y11342D01*
G01X9303Y11342D01*
G01X9112Y11151D01*
G01X7698Y11151D01*
G37*

%LPD*%
G36*
G01X7257Y11403D02*
G01X7267Y11404D01*
G01X7278Y11404D01*
G01X7288Y11404D01*
G01X7299Y11405D01*
G01X7309Y11406D01*
G01X7320Y11407D01*
G01X7330Y11408D01*
G01X7341Y11409D01*
G01X7351Y11411D01*
G01X7362Y11413D01*
G01X7372Y11415D01*
G01X7383Y11417D01*
G01X7393Y11419D01*
G01X7403Y11421D01*
G01X7413Y11424D01*
G01X7424Y11427D01*
G01X7434Y11430D01*
G01X7444Y11433D01*
G01X7454Y11437D01*
G01X7464Y11440D01*
G01X7474Y11444D01*
G01X7483Y11448D01*
G01X7493Y11452D01*
G01X7503Y11456D01*
G01X7513Y11460D01*
G01X7522Y11465D01*
G01X7532Y11470D01*
G01X7541Y11475D01*
G01X7550Y11480D01*
G01X7559Y11485D01*
G01X7569Y11490D01*
G01X7578Y11496D01*
G01X7586Y11501D01*
G01X7595Y11507D01*
G01X7604Y11513D01*
G01X7613Y11519D01*
G01X7621Y11526D01*
G01X7629Y11532D01*
G01X7638Y11539D01*
G01X7646Y11545D01*
G01X7654Y11552D01*
G01X7662Y11559D01*
G01X7670Y11567D01*
G01X7677Y11574D01*
G01X7685Y11581D01*
G01X7692Y11589D01*
G01X7699Y11597D01*
G01X7707Y11604D01*
G01X7714Y11612D01*
G01X7720Y11620D01*
G01X7727Y11628D01*
G01X7734Y11637D01*
G01X7740Y11645D01*
G01X7746Y11654D01*
G01X7752Y11662D01*
G01X7758Y11671D01*
G01X7764Y11680D01*
G01X7770Y11689D01*
G01X7775Y11698D01*
G01X7781Y11707D01*
G01X7786Y11716D01*
G01X7791Y11725D01*
G01X7796Y11735D01*
G01X7801Y11744D01*
G01X7805Y11754D01*
G01X7809Y11764D01*
G01X7814Y11773D01*
G01X7818Y11783D01*
G01X7821Y11793D01*
G01X7825Y11803D01*
G01X7829Y11813D01*
G01X7832Y11823D01*
G01X7835Y11833D01*
G01X9628Y11833D01*
G01X9628Y11667D01*
G01X9364Y11403D01*
G01X7257Y11403D01*
G37*

%LPD*%
G36*
G01X4557Y12183D02*
G01X4986Y12612D01*
G01X5755Y12612D01*
G01X5745Y12612D01*
G01X5734Y12612D01*
G01X5724Y12612D01*
G01X5713Y12611D01*
G01X5703Y12610D01*
G01X5692Y12609D01*
G01X5682Y12608D01*
G01X5671Y12607D01*
G01X5661Y12605D01*
G01X5650Y12603D01*
G01X5640Y12601D01*
G01X5629Y12599D01*
G01X5619Y12597D01*
G01X5609Y12594D01*
G01X5599Y12592D01*
G01X5588Y12589D01*
G01X5578Y12586D01*
G01X5568Y12583D01*
G01X5558Y12579D01*
G01X5548Y12576D01*
G01X5538Y12572D01*
G01X5528Y12568D01*
G01X5519Y12564D01*
G01X5509Y12560D01*
G01X5499Y12556D01*
G01X5490Y12551D01*
G01X5480Y12546D01*
G01X5471Y12541D01*
G01X5462Y12536D01*
G01X5452Y12531D01*
G01X5443Y12526D01*
G01X5434Y12520D01*
G01X5425Y12514D01*
G01X5417Y12509D01*
G01X5408Y12503D01*
G01X5399Y12496D01*
G01X5391Y12490D01*
G01X5382Y12484D01*
G01X5374Y12477D01*
G01X5366Y12470D01*
G01X5358Y12463D01*
G01X5350Y12456D01*
G01X5342Y12449D01*
G01X5335Y12442D01*
G01X5327Y12435D01*
G01X5320Y12427D01*
G01X5312Y12419D01*
G01X5305Y12412D01*
G01X5298Y12404D01*
G01X5292Y12396D01*
G01X5285Y12387D01*
G01X5278Y12379D01*
G01X5272Y12371D01*
G01X5266Y12362D01*
G01X5259Y12354D01*
G01X5253Y12345D01*
G01X5248Y12336D01*
G01X5242Y12327D01*
G01X5236Y12318D01*
G01X5231Y12309D01*
G01X5226Y12300D01*
G01X5221Y12290D01*
G01X5216Y12281D01*
G01X5211Y12271D01*
G01X5207Y12262D01*
G01X5202Y12252D01*
G01X5198Y12243D01*
G01X5194Y12233D01*
G01X5190Y12223D01*
G01X5187Y12213D01*
G01X5183Y12203D01*
G01X5180Y12193D01*
G01X5177Y12183D01*
G01X4557Y12183D01*
G37*

%LPD*%
G36*
G01X5964Y12183D02*
G01X5964Y12612D01*
G01X7047Y12612D01*
G01X7047Y12183D01*
G01X5964Y12183D01*
G37*

%LPD*%
G36*
G01X7835Y12183D02*
G01X7832Y12193D01*
G01X7829Y12203D01*
G01X7825Y12213D01*
G01X7821Y12223D01*
G01X7818Y12233D01*
G01X7814Y12243D01*
G01X7809Y12252D01*
G01X7805Y12262D01*
G01X7801Y12271D01*
G01X7796Y12281D01*
G01X7791Y12290D01*
G01X7786Y12300D01*
G01X7781Y12309D01*
G01X7775Y12318D01*
G01X7770Y12327D01*
G01X7764Y12336D01*
G01X7758Y12345D01*
G01X7752Y12354D01*
G01X7746Y12362D01*
G01X7740Y12371D01*
G01X7734Y12379D01*
G01X7727Y12387D01*
G01X7720Y12396D01*
G01X7714Y12404D01*
G01X7707Y12412D01*
G01X7699Y12419D01*
G01X7692Y12427D01*
G01X7685Y12435D01*
G01X7677Y12442D01*
G01X7670Y12449D01*
G01X7662Y12456D01*
G01X7654Y12463D01*
G01X7646Y12470D01*
G01X7638Y12477D01*
G01X7629Y12484D01*
G01X7621Y12490D01*
G01X7613Y12496D01*
G01X7604Y12503D01*
G01X7595Y12509D01*
G01X7586Y12514D01*
G01X7578Y12520D01*
G01X7569Y12526D01*
G01X7559Y12531D01*
G01X7550Y12536D01*
G01X7541Y12541D01*
G01X7532Y12546D01*
G01X7522Y12551D01*
G01X7513Y12556D01*
G01X7503Y12560D01*
G01X7493Y12564D01*
G01X7483Y12568D01*
G01X7474Y12572D01*
G01X7464Y12576D01*
G01X7454Y12579D01*
G01X7444Y12583D01*
G01X7434Y12586D01*
G01X7424Y12589D01*
G01X7413Y12592D01*
G01X7403Y12594D01*
G01X7393Y12597D01*
G01X7383Y12599D01*
G01X7372Y12601D01*
G01X7362Y12603D01*
G01X7351Y12605D01*
G01X7341Y12607D01*
G01X7330Y12608D01*
G01X7320Y12609D01*
G01X7309Y12610D01*
G01X7299Y12611D01*
G01X7288Y12612D01*
G01X7278Y12612D01*
G01X7267Y12612D01*
G01X7257Y12612D01*
G01X9628Y12612D01*
G01X9628Y12183D01*
G01X7835Y12183D01*
G37*

%LPD*%
G36*
G01X4207Y11833D02*
G01X4557Y12183D01*
G01X9628Y12183D01*
G01X9628Y11833D01*
G01X4207Y11833D01*
G37*

%LPD*%
G36*
G01X7706Y11142D02*
G01X7698Y11151D01*
G01X9112Y11151D01*
G01X9103Y11142D01*
G01X7706Y11142D01*
G37*

%LPD*%
G54D11*
G01X13306Y8198D02*
G01X12827Y8198D01*
G01X8890Y4261D01*
G01X8763Y4261D01*
G01X11430Y2102D02*
G01X11430Y2102D01*
G01X11430Y2102D01*
G01X8788Y5912D02*
G01X8788Y4286D01*
G01X8763Y4261D01*
G01X12039Y5912D02*
G01X12039Y2712D01*
G01X11430Y2102D01*
G01X6096Y16072D02*
G01X6096Y14294D01*
G01X2286Y10484D01*
G01X2286Y6039D01*
G01X2667Y5658D01*
G01X8066Y5658D01*
G01X8879Y6471D01*
G01X13306Y8198D02*
G01X14859Y8198D01*
G01X15748Y7309D01*
G01X10033Y15437D02*
G01X10033Y11500D01*
G01X9398Y10865D01*
G01X9271Y10738D01*
G01X6506Y10738D01*
G54D17*
G01X14056Y12008D02*
G01X12555Y12008D01*
G01X14056Y10738D02*
G01X12555Y10738D01*
G01X14056Y9468D02*
G01X12555Y9468D01*
G01X14056Y8198D02*
G01X12555Y8198D01*
G01X7257Y12008D02*
G01X5755Y12008D01*
G01X7257Y10738D02*
G01X5755Y10738D01*
G01X7257Y9468D02*
G01X5755Y9468D01*
G01X7257Y8198D02*
G01X5755Y8198D01*
G36*
G01X12393Y5146D02*
G01X11606Y5600D01*
G01X10996Y4545D01*
G01X11783Y4090D01*
G01X12393Y5146D01*
G37*
G36*
G01X9577Y6771D02*
G01X8790Y7226D01*
G01X8180Y6170D01*
G01X8968Y5715D01*
G01X9577Y6771D01*
G37*
G54D15*
G01X15240Y15691D03*
G54D16*
G01X11430Y2102D03*
G54D12*
G01X8763Y4261D03*
G01X10033Y15437D03*
G01X6096Y16072D03*
G01X15748Y7309D03*
M00*
M02*
